<?xml version="1.0" encoding="UTF-8" standalone="no"?>
<!-- Created with Inkscape (http://www.inkscape.org/) -->
<svg id="svg2" xmlns:rdf="http://www.w3.org/1999/02/22-rdf-syntax-ns#" xmlns="http://www.w3.org/2000/svg" height="512" width="512" version="1.1" xmlns:cc="http://creativecommons.org/ns#" xmlns:dc="http://purl.org/dc/elements/1.1/">
 <metadata id="metadata4321">
  <rdf:RDF>
   <cc:Work rdf:about="">
    <dc:format>image/svg+xml</dc:format>
    <dc:type rdf:resource="http://purl.org/dc/dcmitype/StillImage"/>
    <dc:title/>
   </cc:Work>
  </rdf:RDF>
 </metadata>
 <path id="path4" d="M0,0v512h512v-512h-512z" fill="#FFF"/>
 <path id="path6" d="M153,239c-9.59,3.52-17.87,11.09-26.09,17l-40.91,28.2c-6.471,4.6-19.02,10.92-15.397,20.8,2.682,7.31,11.925,12.87,17.397,18.04,16.94,16,42.13,32.1,51.54,53.96,2.26,5.25-3.5,15.19-4.25,21-1.64,12.6-1.11,27.89,2.92,40,2.26,6.82,5.84,14.12,9.93,20,2.2,3.16,6.64,7.85,6.22,12-1.12,11.2-27.13,23.77-11.32,35.35,4.63,3.39,10.55,2.65,15.96,2.65h34c17.51,0,35.54,1.26,53-0.06,4.08-0.3,7.16-3.88,11-3.98,4.19-0.1,8.42,2.98,13,3.04,18.31,0.22,36.68-2,55-2l40-1c4.66-0.01,12.53,0.5,16.12-3.03,8.06-7.94-1.26-18.06-7.12-23.25-2-1.77-6.69-5-6.22-8.13,0.92-6.16,11.38-15.09,14.16-21.59,6.81-15.9,4.83-37.87,0.06-54,6.31-3.31,5.85-7.34,9.01-12.83,3.71-6.45,9.15-10.02,9.89-18.17,0.52-5.81-2.98-11.38-1.57-17,4.16-16.71,10.39-33.74,16.01-50,2.52-7.28,7.54-16.06,5.15-24-2.94-9.76-16.29-18.22-22.78-25.84-6.17-7.26-14.72-20.05-24.71-21.16,11.99-21.64,23.36-44.57,23.98-70,0.62-25.17-3.64-49.18-14.61-72-27.64-57.494-96.02-87.19-157.37-72.764-21.55,5.067-40.77,16.12-58,29.648-15.33,12.037-26.71,28.931-35.51,46.116-11.04,21.55-12.6,45.31-12.49,69,0.11,22.92,8.73,45.5,20.23,64.98,4,6.78,10.19,12.12,13.77,19.02z" fill="#010101"/>
 <path id="path8" d="M233,8c1.25,0.6848,1.55,0.7488,3,1-1.25-0.6848-1.55-0.7488-3-1m45,0c1.25,0.6848,1.55,0.7488,3,1-1.25-0.6848-1.55-0.7488-3-1m50,17l1,1-1-1z" fill="#576e57"/>
 <path id="path10" d="M241,27c6.88,2.887,18.41,0,26,0-7.67-3.217-17.9-0.022-26,0z" fill="#989801"/>
 <path id="path12" d="M267,26l1,1-1-1z" fill="#444b19"/>
 <path id="path14" d="M180,329l18,8c9.24-17.53,14.78-38.36,21.56-57,2.31-6.35,3.57-17.15,9.57-21.24,4.73-3.22,14.51-0.44,19.87,0.07,10.84,1.03,23.37,0.68,34-1.72,52.22-11.77,89.71-57.83,91.96-111.11,3.11-73.764-69.66-132.42-140.96-116.98-43.93,9.507-76.57,43.459-88.57,85.985-10.53,37.33,1.89,78.48,27.37,106.83,6.71,7.46,14.87,14.11,23.29,19.57,3.73,2.42,9.79,4.83,10.96,9.62,1.32,5.42-4.33,13.76-5.85,18.98-5.82,19.96-16.4,38.78-21.2,59z" fill="#ffff01"/>
 <path id="path16" d="M268,27c2.33,0.984,4.46,0.981,7,1-2.33-0.984-4.46-0.981-7-1z" fill="#989801"/>
 <path id="path18" d="M275,27l1,1-1-1m-39,1l1,1-1-1m-8,2l1,1-1-1z" fill="#444b19"/>
 <path id="path20" d="M291,31l1,1-1-1z" fill="#6c6c02"/>
 <path id="path22" d="M220.67,32.333c-0.45,0.445,0.61,0.389,0.66,0.334,0.45-0.445-0.61-0.389-0.66-0.334z" fill="#444b19"/>
 <path id="path24" d="M222,32l1,1-1-1z" fill="#989801"/>
 <path id="path26" d="M294,32c1.25,0.685,1.55,0.749,3,1-1.25-0.685-1.55-0.749-3-1z" fill="#444b19"/>
 <path id="path28" d="M218.67,33.333c-0.45,0.445,0.61,0.389,0.66,0.334,0.45-0.445-0.61-0.389-0.66-0.334m79,0c-0.45,0.445,0.61,0.389,0.66,0.334,0.45-0.445-0.61-0.389-0.66-0.334m-82.67,0.667l1,1-1-1z" fill="#6c6c02"/>
 <path id="path30" d="M216.67,34.333c-0.45,0.445,0.61,0.389,0.66,0.334,0.45-0.445-0.61-0.389-0.66-0.334m83,0c-0.45,0.445,0.61,0.389,0.66,0.334,0.45-0.445-0.61-0.389-0.66-0.334m1.33,0.667c1.25,0.685,1.55,0.749,3,1-1.25-0.685-1.55-0.749-3-1z" fill="#989801"/>
 <path id="path32" d="M305,36l1,1-1-1z" fill="#444b19"/>
 <path id="path34" d="M207,38l1,1-1-1z" fill="#989801"/>
 <path id="path36" d="M205,39l1,1-1-1m-2.33,1.333c-0.45,0.445,0.61,0.389,0.66,0.334,0.45-0.445-0.61-0.389-0.66-0.334z" fill="#6c6c02"/>
 <path id="path38" d="M312,40l1,1-1-1z" fill="#989801"/>
 <path id="path40" d="M313,40l1,1-1-1z" fill="#444b19"/>
 <path id="path42" d="M200.67,41.333c-0.45,0.445,0.61,0.389,0.66,0.334,0.45-0.445-0.61-0.389-0.66-0.334z" fill="#6c6c02"/>
 <path id="path44" d="M314.67,41.333c-0.45,0.445,0.61,0.389,0.66,0.334,0.45-0.445-0.61-0.389-0.66-0.334m-115.67,0.667l1,1-1-1m117.67,0.333c-0.45,0.445,0.61,0.389,0.66,0.334,0.45-0.445-0.61-0.389-0.66-0.334m1.33,0.667l1,1-1-1z" fill="#989801"/>
 <path id="path46" d="M320,44l1,1-1-1z" fill="#6c6c02"/>
 <path id="path48" d="M321,45l1,1-1-1m-130,2l1,1-1-1z" fill="#444b19"/>
 <path id="path50" d="M192,47l1,1-1-1z" fill="#989801"/>
 <path id="path52" d="M324.67,47.333c-0.45,0.445,0.61,0.389,0.66,0.334,0.45-0.445-0.61-0.389-0.66-0.334z" fill="#444b19"/>
 <path id="path54" d="M190,48l1,1-1-1z" fill="#989801"/>
 <path id="path56" d="M326,48l1,1-1-1z" fill="#444b19"/>
 <path id="path58" d="M188.67,49.333c-0.45,0.445,0.61,0.389,0.66,0.334,0.45-0.445-0.61-0.389-0.66-0.334m138.33-0.333l1,1-1-1m-140,1l1,1-1-1z" fill="#989801"/>
 <path id="path60" d="M359,50l1,1-1-1z" fill="#9fc79f"/>
 <path id="path62" d="M186,51l1,1-1-1m-1,1l1,1-1-1m-1,1l1,1-1-1z" fill="#989801"/>
 <path id="path64" d="M182,54l1,1-1-1m-1,1l1,1-1-1z" fill="#6c6c02"/>
 <path id="path66" d="M334,55l1,1-1-1z" fill="#9fc79f"/>
 <path id="path68" d="M180,56l1,1-1-1z" fill="#6c6c02"/>
 <path id="path70" d="M335.67,56.333c-0.45,0.445,0.61,0.389,0.66,0.334,0.45-0.445-0.61-0.389-0.66-0.334m-156.67,0.667l1,1-1-1m158,0l1,1-1-1m-159,1l1,1-1-1m-1,1l1,1-1-1z" fill="#989801"/>
 <path id="path72" d="M176,60l1,1-1-1m-1,1l1,1-1-1z" fill="#6c6c02"/>
 <path id="path74" d="M341,61l1,1-1-1z" fill="#989801"/>
 <path id="path76" d="M174,62l1,1-1-1z" fill="#6c6c02"/>
 <path id="path78" d="M342,62l1,1-1-1z" fill="#989801"/>
 <path id="path80" d="M173,63l1,1-1-1z" fill="#6c6c02"/>
 <path id="path82" d="M343,63l1,1-1-1m-171,1l1,1-1-1m172,0l1,1-1-1m-173,1l1,1-1-1m-1,1l1,1-1-1z" fill="#989801"/>
 <path id="path84" d="M169,67l1,1-1-1m-0.67,1.667c-0.05,0.055-0.11,1.111,0.34,0.666,0.05-0.055,0.11-1.111-0.34-0.666m-1.33,1.333l1,1-1-1z" fill="#6c6c02"/>
 <path id="path86" d="M166,71l1,1-1-1m-1,1l1,1-1-1m-1.67,3.667c-0.05,0.055-0.11,1.111,0.34,0.666,0.05-0.055,0.11-1.111-0.34-0.666z" fill="#989801"/>
 <path id="path88" d="M299,75.518c-52.42,11.12-36.2,92.762,16,81.662,52.67-11.2,36.32-92.76-16-81.662z" fill="#010101"/>
 <path id="path90" d="M162,77l1,1-1-1m35,1c4.93,2.009,13.5,0.954,19,1-6.16-2.657-12.56-1.277-19-1m93-1c1.25,0.685,1.55,0.749,3,1-1.25-0.685-1.55-0.749-3-1m31,0c1.25,0.685,1.55,0.749,3,1-1.25-0.685-1.55-0.749-3-1z" fill="#989801"/>
 <path id="path92" d="M354,77l1,1-1-1z" fill="#444b19"/>
 <path id="path94" d="M161,78l1,1-1-1z" fill="#6c6c02"/>
 <path id="path96" d="M203,78.432c-41.94,5.523-52.25,62.648-12,79.888,7.45,3.19,18.11,2.68,26,1.47,48.64-7.5,34.78-87.781-14-81.358z" fill="#010101"/>
 <path id="path98" d="M289,78l1,1-1-1m35,0l1,1-1-1z" fill="#989801"/>
 <path id="path100" d="M355,78l1,1-1-1z" fill="#444b19"/>
 <path id="path102" d="M194,79c1.25,0.685,1.55,0.749,3,1-1.25-0.685-1.55-0.749-3-1m22,0c1.25,0.685,1.55,0.749,3,1-1.25-0.685-1.55-0.749-3-1z" fill="#6c6c02"/>
 <path id="path104" d="M287.67,79.333c-0.45,0.445,0.61,0.389,0.66,0.334,0.45-0.445-0.61-0.389-0.66-0.334z" fill="#444b19"/>
 <path id="path106" d="M325.67,79.333c-0.45,0.445,0.61,0.389,0.66,0.334,0.45-0.445-0.61-0.389-0.66-0.334z" fill="#989801"/>
 <path id="path108" d="M191,80c1.25,0.685,1.55,0.749,3,1-1.25-0.685-1.55-0.749-3-1m28.67,0.333c-0.45,0.445,0.61,0.389,0.66,0.334,0.45-0.445-0.61-0.389-0.66-0.334z" fill="#444b19"/>
 <path id="path110" d="M221,80l1,1-1-1z" fill="#989801"/>
 <path id="path112" d="M286,80l1,1-1-1m41,0l1,1-1-1z" fill="#444b19"/>
 <path id="path114" d="M328,80l1,1-1-1z" fill="#9fc79f"/>
 <path id="path116" d="M356,80l1,1-1-1z" fill="#6c6c02"/>
 <path id="path118" d="M357.33,81.667c-0.05,0.055-0.11,1.111,0.34,0.666,0.05-0.055,0.11-1.111-0.34-0.666z" fill="#989801"/>
 <path id="path120" d="M282,82l1,1-1-1z" fill="#6c6c02"/>
 <path id="path122" d="M185,83l1,1-1-1z" fill="#444b19"/>
 <path id="path124" d="M281,83l1,1-1-1z" fill="#989801"/>
 <path id="path126" d="M358,83l1,1-1-1m-174,1l1,1-1-1z" fill="#6c6c02"/>
 <path id="path128" d="M228,84l1,1-1-1z" fill="#444b19"/>
 <path id="path130" d="M280,84l1,1-1-1z" fill="#989801"/>
 <path id="path132" d="M359,84l1,1-1-1z" fill="#444b19"/>
 <path id="path134" d="M182,85l1,1-1-1m48,0l1,1-1-1z" fill="#6c6c02"/>
 <path id="path136" d="M278.67,85.333c-0.45,0.445,0.61,0.389,0.66,0.334,0.45-0.445-0.61-0.389-0.66-0.334z" fill="#989801"/>
 <path id="path138" d="M334,85l1,1-1-1z" fill="#444b19"/>
 <path id="path140" d="M359,85l1,1-1-1m-203,1l1,1-1-1m25,0l1,1-1-1m50,0l1,1-1-1z" fill="#6c6c02"/>
 <path id="path142" d="M277,86l1,1-1-1z" fill="#989801"/>
 <path id="path144" d="M305,86l1,1-1-1z" fill="#444b19"/>
 <path id="path146" d="M306.67,86.333c-0.45,0.445,0.61,0.389,0.66,0.334,0.45-0.445-0.61-0.389-0.66-0.334z" fill="#779375"/>
 <path id="path148" d="M335,86l1,1-1-1z" fill="#444b19"/>
 <path id="path150" d="M179.67,87.333c-0.45,0.445,0.61,0.389,0.66,0.334,0.45-0.445-0.61-0.389-0.66-0.334z" fill="#6c6c02"/>
 <path id="path152" d="M232,87l1,1-1-1z" fill="#444b19"/>
 <path id="path154" d="M276,87l1,1-1-1z" fill="#989801"/>
 <path id="path156" d="M300,87c1.77,0.779,3.04,0.912,5,1-1.77-0.779-3.04-0.912-5-1z" fill="#95bb95"/>
 <path id="path158" d="M283,134c3-3.96,5.42-9.52,10.18-11.66,15.75-7.07,24.49,8.35,22.82,21.66,38.8-11.2,14.11-71.907-22-53.85-4.34,2.168-8.17,5.944-10.96,9.85-3.18,4.48-5.24,9.49-5.71,15-0.59,6.86,2.59,13.13,5.67,19z" fill="#FFF"/>
 <path id="path160" d="M308,87c2.05,0.874,3.75,0.953,6,1-2.05-0.874-3.75-0.953-6-1z" fill="#95bb95"/>
 <path id="path162" d="M360,87l1,1-1-1m-205,1l1,1-1-1z" fill="#989801"/>
 <path id="path164" d="M178,88l1,1-1-1z" fill="#6c6c02"/>
 <path id="path166" d="M233.67,88.333c-0.45,0.445,0.61,0.389,0.66,0.334,0.45-0.445-0.61-0.389-0.66-0.334m42.33-0.333l1,1-1-1z" fill="#444b19"/>
 <path id="path168" d="M297,88l1,1-1-1z" fill="#576e57"/>
 <path id="path170" d="M298.67,88.333c-0.45,0.445,0.61,0.389,0.66,0.334,0.45-0.445-0.61-0.389-0.66-0.334m15.33-0.333c1.25,0.685,1.55,0.749,3,1-1.25-0.685-1.55-0.749-3-1z" fill="#9fc79f"/>
 <path id="path172" d="M154.33,89.667c-0.05,0.055-0.11,1.111,0.34,0.666,0.05-0.055,0.11-1.111-0.34-0.666z" fill="#989801"/>
 <path id="path174" d="M177,89l1,1-1-1z" fill="#6c6c02"/>
 <path id="path176" d="M235,89l1,1-1-1z" fill="#444b19"/>
 <path id="path178" d="M275,89l1,1-1-1z" fill="#6c6c02"/>
 <path id="path180" d="M319,89l1,1-1-1z" fill="#779375"/>
 <path id="path182" d="M176,90l1,1-1-1z" fill="#989801"/>
 <path id="path184" d="M201,90l1,1-1-1z" fill="#9fc79f"/>
 <path id="path186" d="M196,147c-1.86-8.13-2.94-15.07,3.38-21.79,10.5-11.16,28.74-3.58,30.62,10.79,9.52-9.43,5.95-29.23-3.17-37.74-12.58-11.724-31.99-10.389-42.89,2.76-3.76,4.52-5.37,9.22-6.17,14.98-0.77,5.56,0.25,11.88,2.58,17,3.12,6.83,8.9,11.17,15.65,14z" fill="#FFF"/>
 <path id="path188" d="M236,90l1,1-1-1z" fill="#6c6c02"/>
 <path id="path190" d="M274,90l1,1-1-1z" fill="#989801"/>
 <path id="path192" d="M320,90l1,1-1-1z" fill="#576e57"/>
 <path id="path194" d="M153.33,91.667c-0.05,0.055-0.11,1.111,0.34,0.666,0.05-0.055,0.11-1.111-0.34-0.666m21.67-0.667l1,1-1-1z" fill="#989801"/>
 <path id="path196" d="M197,91l1,1-1-1z" fill="#444b19"/>
 <path id="path198" d="M215,91l1,1-1-1z" fill="#576e57"/>
 <path id="path200" d="M237.33,91.667c-0.05,0.055-0.11,1.111,0.34,0.666,0.05-0.055,0.11-1.111-0.34-0.666z" fill="#6c6c02"/>
 <path id="path202" d="M273,91l1,1-1-1z" fill="#989801"/>
 <path id="path204" d="M291,91l1,1-1-1z" fill="#9fc79f"/>
 <path id="path206" d="M174,92l1,1-1-1z" fill="#989801"/>
 <path id="path208" d="M193.67,92.333c-0.45,0.445,0.61,0.389,0.66,0.334,0.45-0.445-0.61-0.389-0.66-0.334m25,0c-0.45,0.445,0.61,0.389,0.66,0.334,0.45-0.445-0.61-0.389-0.66-0.334z" fill="#444b19"/>
 <path id="path210" d="M290,92l1,1-1-1z" fill="#9fc79f"/>
 <path id="path212" d="M324,92l1,1-1-1z" fill="#444b19"/>
 <path id="path214" d="M192,93l1,1-1-1z" fill="#576e57"/>
 <path id="path216" d="M220,93l1,1-1-1z" fill="#444b19"/>
 <path id="path218" d="M238,93l1,1-1-1m34,0l1,1-1-1z" fill="#6c6c02"/>
 <path id="path220" d="M288,93l1,1-1-1z" fill="#576e57"/>
 <path id="path222" d="M289,93l1,1-1-1z" fill="#95bb95"/>
 <path id="path224" d="M325,93l1,1-1-1z" fill="#444b19"/>
 <path id="path226" d="M173,94l1,1-1-1z" fill="#6c6c02"/>
 <path id="path228" d="M190,94l1,1-1-1z" fill="#779375"/>
 <path id="path230" d="M191,94l1,1-1-1z" fill="#9fc79f"/>
 <path id="path232" d="M221,94l1,1-1-1z" fill="#779375"/>
 <path id="path234" d="M222,94l1,1-1-1m17,0l1,1-1-1z" fill="#444b19"/>
 <path id="path236" d="M271,94l1,1-1-1z" fill="#6c6c02"/>
 <path id="path238" d="M287,94l1,1-1-1z" fill="#95bb95"/>
 <path id="path240" d="M326,94l1,1-1-1z" fill="#779375"/>
 <path id="path242" d="M327,94l1,1-1-1z" fill="#444b19"/>
 <path id="path244" d="M342,94l1,1-1-1z" fill="#6c6c02"/>
 <path id="path246" d="M364,94l1,1-1-1m-192,1l1,1-1-1z" fill="#444b19"/>
 <path id="path248" d="M189,95l1,1-1-1m33.67,0.333c-0.45,0.445,0.61,0.389,0.66,0.334,0.45-0.445-0.61-0.389-0.66-0.334z" fill="#9fc79f"/>
 <path id="path250" d="M240,95l1,1-1-1z" fill="#444b19"/>
 <path id="path252" d="M286,95l1,1-1-1z" fill="#9fc79f"/>
 <path id="path254" d="M328.33,95.667c-0.05,0.055-0.11,1.111,0.34,0.666,0.05-0.055,0.11-1.111-0.34-0.666z" fill="#444b19"/>
 <path id="path256" d="M343.33,95.667c-0.05,0.055-0.11,1.111,0.34,0.666,0.05-0.055,0.11-1.111-0.34-0.666m20.67-0.667l1,1-1-1z" fill="#989801"/>
 <path id="path258" d="M171.33,96.667c-0.05,0.055-0.11,1.111,0.34,0.666,0.05-0.055,0.11-1.111-0.34-0.666z" fill="#444b19"/>
 <path id="path260" d="M285,96l1,1-1-1z" fill="#9fc79f"/>
 <path id="path262" d="M365,96v3c0.7-1.554,0.7-1.446,0-3z" fill="#6c6c02"/>
 <path id="path264" d="M284,97l1,1-1-1z" fill="#9fc79f"/>
 <path id="path266" d="M344.33,97.667c-0.05,0.055-0.11,1.111,0.34,0.666,0.05-0.055,0.11-1.111-0.34-0.666z" fill="#989801"/>
 <path id="path268" d="M170.33,98.667c-0.05,0.055-0.11,1.111,0.34,0.666,0.05-0.055,0.11-1.111-0.34-0.666z" fill="#444b19"/>
 <path id="path270" d="M283.33,98.667c-0.05,0.055-0.11,1.111,0.34,0.666,0.05-0.055,0.11-1.111-0.34-0.666z" fill="#9fc79f"/>
 <path id="path272" d="M126,99l1,1-1-1z" fill="#576e57"/>
 <path id="path274" d="M185,99l1,1-1-1z" fill="#9fc79f"/>
 <path id="path276" d="M366,99l1,1-1-1z" fill="#444b19"/>
 <path id="path278" d="M169,100l1,1-1-1z" fill="#6c6c02"/>
 <path id="path280" d="M184,100l1,1-1-1z" fill="#9fc79f"/>
 <path id="path282" d="M268.33,100.67c-0.05,0.05-0.11,1.11,0.34,0.66,0.05-0.05,0.11-1.11-0.34-0.66z" fill="#444b19"/>
 <path id="path284" d="M282,100l1,1-1-1z" fill="#9fc79f"/>
 <path id="path286" d="M345,100l1,1-1-1m21,0l1,1-1-1z" fill="#989801"/>
 <path id="path288" d="M149,101l1,1-1-1z" fill="#6c6c02"/>
 <path id="path290" d="M169,101l1,1-1-1z" fill="#444b19"/>
 <path id="path292" d="M183,101l1,1-1-1m46,0l1,1-1-1z" fill="#9fc79f"/>
 <path id="path294" d="M244,101l1,1-1-1z" fill="#989801"/>
 <path id="path296" d="M281,101l1,1-1-1m51,0l1,1-1-1z" fill="#576e57"/>
 <path id="path298" d="M168,102l1,1-1-1z" fill="#989801"/>
 <path id="path300" d="M182,102l1,1-1-1z" fill="#9fc79f"/>
 <path id="path302" d="M230,102l1,1-1-1z" fill="#444b19"/>
 <path id="path304" d="M244,102l1,1-1-1z" fill="#6c6c02"/>
 <path id="path306" d="M267,102l1,1-1-1z" fill="#989801"/>
 <path id="path308" d="M280.33,102.67c-0.05,0.05-0.11,1.11,0.34,0.66,0.05-0.05,0.11-1.11-0.34-0.66z" fill="#444b19"/>
 <path id="path310" d="M281,102l1,1-1-1z" fill="#9fc79f"/>
 <path id="path312" d="M148,103v3c0.7-1.55,0.7-1.45,0-3z" fill="#989801"/>
 <path id="path314" d="M167,103v3c0.7-1.55,0.7-1.45,0-3z" fill="#9fc79f"/>
 <path id="path316" d="M245,103v3c0.7-1.55,0.7-1.45,0-3z" fill="#989801"/>
 <path id="path318" d="M267.33,103.67c-0.05,0.05-0.11,1.11,0.34,0.66,0.05-0.05,0.11-1.11-0.34-0.66z" fill="#6c6c02"/>
 <path id="path320" d="M333.33,103.67c-0.05,0.05-0.11,1.11,0.34,0.66,0.05-0.05,0.11-1.11-0.34-0.66z" fill="#9fc79f"/>
 <path id="path322" d="M346,103l1,1-1-1z" fill="#444b19"/>
 <path id="path324" d="M266,105v3c0.7-1.55,0.7-1.45,0-3z" fill="#989801"/>
 <path id="path326" d="M334,105v3c0.7-1.55,0.7-1.45,0-3z" fill="#779375"/>
 <path id="path328" d="M147,106v3c0.7-1.55,0.7-1.45,0-3z" fill="#989801"/>
 <path id="path330" d="M233,107l1,1-1-1z" fill="#444b19"/>
 <path id="path332" d="M166,108l1,1-1-1z" fill="#989801"/>
 <path id="path334" d="M246,108l1,1-1-1z" fill="#6c6c02"/>
 <path id="path336" d="M265,108v17c1.88-4.49,1.88-12.51,0-17z" fill="#989801"/>
 <path id="path338" d="M278,108l1,1-1-1m57.33,0.67c-0.05,0.05-0.11,1.11,0.34,0.66,0.05-0.05,0.11-1.11-0.34-0.66z" fill="#576e57"/>
 <path id="path340" d="M369,108l1,1-1-1m-223,1l1,1-1-1z" fill="#444b19"/>
 <path id="path342" d="M178,109l1,1-1-1z" fill="#576e57"/>
 <path id="path344" d="M146.33,110.67c-0.05,0.05-0.11,1.11,0.34,0.66,0.05-0.05,0.11-1.11-0.34-0.66z" fill="#6c6c02"/>
 <path id="path346" d="M178.33,110.67c-0.05,0.05-0.11,1.11,0.34,0.66,0.05-0.05,0.11-1.11-0.34-0.66z" fill="#9fc79f"/>
 <path id="path348" d="M234,110l1,1-1-1z" fill="#95bb95"/>
 <path id="path350" d="M336,110v13c1.59-3.79,1.59-9.21,0-13m-191,2v3c0.7-1.55,0.7-1.45,0-3z" fill="#444b19"/>
 <path id="path352" d="M177,112v6c0.95-2.28,0.95-3.72,0-6z" fill="#779375"/>
 <path id="path354" d="M348,112v9c1.26-2.99,1.26-6.01,0-9z" fill="#444b19"/>
 <path id="path356" d="M235,113v13c1.59-3.79,1.59-9.21,0-13z" fill="#9fc79f"/>
 <path id="path358" d="M371,114v3c0.7-1.55,0.7-1.45,0-3z" fill="#989801"/>
 <path id="path360" d="M372,117l1,1-1-1z" fill="#444b19"/>
 <path id="path362" d="M176,118v3c0.7-1.55,0.7-1.45,0-3z" fill="#576e57"/>
 <path id="path364" d="M372,118v5c0.83-2.03,0.83-2.97,0-5z" fill="#989801"/>
 <path id="path366" d="M213,119l1,1-1-1z" fill="#576e57"/>
 <path id="path368" d="M206,120l1,1-1-1m-29,1v6c0.95-2.28,0.95-3.72,0-6z" fill="#779375"/>
 <path id="path370" d="M295,121l1,1-1-1z" fill="#9fc79f"/>
 <path id="path372" d="M304,121l1,1-1-1z" fill="#576e57"/>
 <path id="path374" d="M221,122l1,1-1-1z" fill="#444b19"/>
 <path id="path376" d="M291.67,122.33c-0.45,0.45,0.61,0.39,0.66,0.34,0.45-0.45-0.61-0.39-0.66-0.34m16,0c-0.45,0.45,0.61,0.39,0.66,0.34,0.45-0.45-0.61-0.39-0.66-0.34z" fill="#9fc79f"/>
 <path id="path378" d="M143,123l1,1-1-1z" fill="#6c6c02"/>
 <path id="path380" d="M200,123l1,1-1-1z" fill="#9fc79f"/>
 <path id="path382" d="M223,123l1,1-1-1z" fill="#576e57"/>
 <path id="path384" d="M309,123l1,1-1-1z" fill="#95bb95"/>
 <path id="path386" d="M335.33,123.67c-0.05,0.05-0.11,1.11,0.34,0.66,0.05-0.05,0.11-1.11-0.34-0.66z" fill="#926a61"/>
 <path id="path388" d="M373,123v4c0.71-1.76,0.71-2.24,0-4z" fill="#6c6c02"/>
 <path id="path390" d="M199,124l1,1-1-1z" fill="#9fc79f"/>
 <path id="path392" d="M224,124l1,1-1-1m54,0l1,1-1-1z" fill="#576e57"/>
 <path id="path394" d="M289,124l1,1-1-1z" fill="#9fc79f"/>
 <path id="path396" d="M310,124l1,1-1-1z" fill="#926a61"/>
 <path id="path398" d="M311,124l1,1-1-1z" fill="#95bb95"/>
 <path id="path400" d="M198,125l1,1-1-1z" fill="#9fc79f"/>
 <path id="path402" d="M225,125l1,1-1-1z" fill="#444b19"/>
 <path id="path404" d="M247,125l1,1-1-1z" fill="#989801"/>
 <path id="path406" d="M266,125l1,1-1-1z" fill="#6c6c02"/>
 <path id="path408" d="M312,125l1,1-1-1z" fill="#9fc79f"/>
 <path id="path410" d="M334,125v3c0.7-1.55,0.7-1.45,0-3z" fill="#779375"/>
 <path id="path412" d="M266.33,126.67c-0.05,0.05-0.11,1.11,0.34,0.66,0.05-0.05,0.11-1.11-0.34-0.66z" fill="#989801"/>
 <path id="path414" d="M313.33,126.67c-0.05,0.05-0.11,1.11,0.34,0.66,0.05-0.05,0.11-1.11-0.34-0.66z" fill="#95bb95"/>
 <path id="path416" d="M178,127v3c0.7-1.55,0.7-1.45,0-3z" fill="#9fc79f"/>
 <path id="path418" d="M374,127v11c1.43-3.41,1.43-7.59,0-11z" fill="#444b19"/>
 <path id="path420" d="M267,128v3c0.7-1.55,0.7-1.45,0-3z" fill="#6c6c02"/>
 <path id="path422" d="M314,128l1,1-1-1z" fill="#9fc79f"/>
 <path id="path424" d="M333.33,128.67c-0.05,0.05-0.11,1.11,0.34,0.66,0.05-0.05,0.11-1.11-0.34-0.66z" fill="#95bb95"/>
 <path id="path426" d="M166,130l1,1-1-1z" fill="#444b19"/>
 <path id="path428" d="M195,130l1,1-1-1z" fill="#9fc79f"/>
 <path id="path430" d="M228.33,130.67c-0.05,0.05-0.11,1.11,0.34,0.66,0.05-0.05,0.11-1.11-0.34-0.66z" fill="#444b19"/>
 <path id="path432" d="M315,130l1,1-1-1z" fill="#95bb95"/>
 <path id="path434" d="M179,131l1,1-1-1z" fill="#926a61"/>
 <path id="path436" d="M229,131l1,1-1-1z" fill="#9fc79f"/>
 <path id="path438" d="M233,131l1,1-1-1z" fill="#779375"/>
 <path id="path440" d="M246.33,131.67c-0.05,0.05-0.11,1.11,0.34,0.66,0.05-0.05,0.11-1.11-0.34-0.66z" fill="#989801"/>
 <path id="path442" d="M268.33,131.67c-0.05,0.05-0.11,1.11,0.34,0.66,0.05-0.05,0.11-1.11-0.34-0.66z" fill="#444b19"/>
 <path id="path444" d="M281,131l1,1-1-1z" fill="#576e57"/>
 <path id="path446" d="M284,131l1,1-1-1z" fill="#95bb95"/>
 <path id="path448" d="M332,131l1,1-1-1m-103,1v4c0.71-1.76,0.71-2.24,0-4z" fill="#926a61"/>
 <path id="path450" d="M282,132l1,1-1-1z" fill="#9fc79f"/>
 <path id="path452" d="M284.33,132.67c-0.05,0.05-0.11,1.11,0.34,0.66,0.05-0.05,0.11-1.11-0.34-0.66z" fill="#444b19"/>
 <path id="path454" d="M345,132l1,1-1-1m-178,1l1,1-1-1z" fill="#989801"/>
 <path id="path456" d="M180,133l1,1-1-1z" fill="#444b19"/>
 <path id="path458" d="M194,133l1,1-1-1z" fill="#576e57"/>
 <path id="path460" d="M232,133l1,1-1-1z" fill="#444b19"/>
 <path id="path462" d="M245,133v3c0.7-1.55,0.7-1.45,0-3z" fill="#989801"/>
 <path id="path464" d="M331,133l1,1-1-1m-100,2l1,1-1-1m98,0l1,1-1-1z" fill="#444b19"/>
 <path id="path466" d="M168.33,136.67c-0.05,0.05-0.11,1.11,0.34,0.66,0.05-0.05,0.11-1.11-0.34-0.66m76,0c-0.05,0.05-0.11,1.11,0.34,0.66,0.05-0.05,0.11-1.11-0.34-0.66z" fill="#989801"/>
 <path id="path468" d="M328.33,136.67c-0.05,0.05-0.11,1.11,0.34,0.66,0.05-0.05,0.11-1.11-0.34-0.66z" fill="#444b19"/>
 <path id="path470" d="M343.33,136.67c-0.05,0.05-0.11,1.11,0.34,0.66,0.05-0.05,0.11-1.11-0.34-0.66z" fill="#989801"/>
 <path id="path472" d="M327,137l1,1-1-1z" fill="#9fc79f"/>
 <path id="path474" d="M169,138l1,1-1-1z" fill="#6c6c02"/>
 <path id="path476" d="M243,138l1,1-1-1m28,0l1,1-1-1z" fill="#444b19"/>
 <path id="path478" d="M326,138l1,1-1-1z" fill="#576e57"/>
 <path id="path480" d="M342,138l1,1-1-1z" fill="#6c6c02"/>
 <path id="path482" d="M169,139l1,1-1-1z" fill="#9fc79f"/>
 <path id="path484" d="M170.33,139.67c-0.05,0.05-0.11,1.11,0.34,0.66,0.05-0.05,0.11-1.11-0.34-0.66z" fill="#444b19"/>
 <path id="path486" d="M243,139l1,1-1-1z" fill="#989801"/>
 <path id="path488" d="M272,139l1,1-1-1z" fill="#6c6c02"/>
 <path id="path490" d="M325,139l1,1-1-1z" fill="#444b19"/>
 <path id="path492" d="M342,139l1,1-1-1m-100,1l1,1-1-1z" fill="#9fc79f"/>
 <path id="path494" d="M324,140l1,1-1-1z" fill="#444b19"/>
 <path id="path496" d="M273,141l1,1-1-1z" fill="#989801"/>
 <path id="path498" d="M322.67,141.33c-0.45,0.45,0.61,0.39,0.66,0.34,0.45-0.45-0.61-0.39-0.66-0.34z" fill="#444b19"/>
 <path id="path500" d="M274,142l1,1-1-1z" fill="#6c6c02"/>
 <path id="path502" d="M320,142l1,1-1-1z" fill="#926a61"/>
 <path id="path504" d="M275,143l1,1-1-1z" fill="#6c6c02"/>
 <path id="path506" d="M318,143l1,1-1-1z" fill="#9fc79f"/>
 <path id="path508" d="M190,144l1,1-1-1z" fill="#444b19"/>
 <path id="path510" d="M276,144l1,1-1-1z" fill="#6c6c02"/>
 <path id="path512" d="M315.67,144.33c-0.45,0.45,0.61,0.39,0.66,0.34,0.45-0.45-0.61-0.39-0.66-0.34z" fill="#9fc79f"/>
 <path id="path514" d="M192,145l1,1-1-1z" fill="#576e57"/>
 <path id="path516" d="M193.67,146.33c-0.45,0.45,0.61,0.39,0.66,0.34,0.45-0.45-0.61-0.39-0.66-0.34z" fill="#779375"/>
 <path id="path518" d="M196,146l-1,2h2c0-1.85,0.3-1.35-1-2z" fill="#576e57"/>
 <path id="path520" d="M237,146l1,1-1-1z" fill="#444b19"/>
 <path id="path522" d="M277.67,146.33c-0.45,0.45,0.61,0.39,0.66,0.34,0.45-0.45-0.61-0.39-0.66-0.34m-102.67,0.67l1,1-1-1z" fill="#6c6c02"/>
 <path id="path524" d="M237,147l1,1-1-1m42,0l1,1-1-1z" fill="#989801"/>
 <path id="path526" d="M176,148l1,1-1-1z" fill="#6c6c02"/>
 <path id="path528" d="M236,148l1,1-1-1z" fill="#444b19"/>
 <path id="path530" d="M280,148l1,1-1-1z" fill="#989801"/>
 <path id="path532" d="M177,149l1,1-1-1z" fill="#444b19"/>
 <path id="path534" d="M281,149l1,1-1-1z" fill="#989801"/>
 <path id="path536" d="M178,150l1,1-1-1z" fill="#444b19"/>
 <path id="path538" d="M282,150l1,1-1-1z" fill="#6c6c02"/>
 <path id="path540" d="M374,150v8c1.16-2.77,1.16-5.23,0-8m-87.33,2.33c-0.45,0.45,0.61,0.39,0.66,0.34,0.45-0.45-0.61-0.39-0.66-0.34z" fill="#444b19"/>
 <path id="path542" d="M328,152l1,1-1-1z" fill="#989801"/>
 <path id="path544" d="M182,153l1,1-1-1z" fill="#444b19"/>
 <path id="path546" d="M325,153l1,1-1-1z" fill="#6c6c02"/>
 <path id="path548" d="M326,153l1,1-1-1m-143,1c1.22,1.2,1.42,1.32,3,2-1.14-1.02-1.61-1.31-3-2z" fill="#989801"/>
 <path id="path550" d="M184,154l1,1-1-1z" fill="#444b19"/>
 <path id="path552" d="M229,154l1,1-1-1m60,0l1,1-1-1m34.67,0.33c-0.45,0.45,0.61,0.39,0.66,0.34,0.45-0.45-0.61-0.39-0.66-0.34z" fill="#989801"/>
 <path id="path554" d="M227.67,155.33c-0.45,0.45,0.61,0.39,0.66,0.34,0.45-0.45-0.61-0.39-0.66-0.34z" fill="#9fc79f"/>
 <path id="path556" d="M290,155c1.51,0.68,2.32,0.83,4,1-1.51-0.68-2.32-0.83-4-1z" fill="#989801"/>
 <path id="path558" d="M320,155l1,1-1-1z" fill="#6c6c02"/>
 <path id="path560" d="M321.67,155.33c-0.45,0.45,0.61,0.39,0.66,0.34,0.45-0.45-0.61-0.39-0.66-0.34m-25.67,0.67l1,1-1-1m-73,1l1,1-1-1m90,0l1,1-1-1m-122,1l1,1-1-1z" fill="#989801"/>
 <path id="path562" d="M221,158l1,1-1-1m152,0v5c0.83-2.03,0.83-2.97,0-5z" fill="#6c6c02"/>
 <path id="path564" d="M197,160c2.61,1.1,5.16,0.99,8,1-2.61-1.1-5.16-0.99-8-1m11,0c2.33,0.98,4.46,0.98,7,1-2.33-0.98-4.46-0.98-7-1z" fill="#444b19"/>
 <path id="path566" d="M215,160l1,1-1-1z" fill="#9fc79f"/>
 <path id="path568" d="M205,161c1.25,0.68,1.55,0.75,3,1-1.25-0.68-1.55-0.75-3-1m-62,1l1,1-1-1z" fill="#6c6c02"/>
 <path id="path570" d="M372,163v5c0.83-2.03,0.83-2.97,0-5m-1,5v4c0.71-1.76,0.71-2.24,0-4z" fill="#989801"/>
 <path id="path572" d="M145,171v3c0.7-1.55,0.7-1.45,0-3z" fill="#444b19"/>
 <path id="path574" d="M146,174v3c0.7-1.55,0.7-1.45,0-3z" fill="#6c6c02"/>
 <path id="path576" d="M147,177v3c0.7-1.55,0.7-1.45,0-3z" fill="#989801"/>
 <path id="path578" d="M369,177l1,1-1-1z" fill="#6c6c02"/>
 <path id="path580" d="M148,180v3c0.7-1.55,0.7-1.45,0-3m219,3l1,1-1-1z" fill="#989801"/>
 <path id="path582" d="M149,184l1,1-1-1z" fill="#6c6c02"/>
 <path id="path584" d="M366,185l1,1-1-1z" fill="#989801"/>
 <path id="path586" d="M366,186l1,1-1-1z" fill="#444b19"/>
 <path id="path588" d="M365,187v3c0.7-1.55,0.7-1.45,0-3z" fill="#6c6c02"/>
 <path id="path590" d="M390,187l1,1-1-1z" fill="#576e57"/>
 <path id="path592" d="M364,190l1,1-1-1m-212,1l1,1-1-1z" fill="#989801"/>
 <path id="path594" d="M364,191l1,1-1-1z" fill="#444b19"/>
 <path id="path596" d="M153,193l1,1-1-1m1.33,1.67c-0.05,0.05-0.11,1.11,0.34,0.66,0.05-0.05,0.11-1.11-0.34-0.66m1,2c-0.05,0.05-0.11,1.11,0.34,0.66,0.05-0.05,0.11-1.11-0.34-0.66m204.67,1.33l1,1-1-1z" fill="#989801"/>
 <path id="path598" d="M156,199l1,1-1-1z" fill="#6c6c02"/>
 <path id="path600" d="M157,200l1,1-1-1z" fill="#444b19"/>
 <path id="path602" d="M359,200l1,1-1-1z" fill="#6c6c02"/>
 <path id="path604" d="M359,201l1,1-1-1z" fill="#444b19"/>
 <path id="path606" d="M358,202l1,1-1-1m-0.67,1.67c-0.05,0.05-0.11,1.11,0.34,0.66,0.05-0.05,0.11-1.11-0.34-0.66m-1.33,1.33l1,1-1-1z" fill="#6c6c02"/>
 <path id="path608" d="M161,207l1,1-1-1z" fill="#989801"/>
 <path id="path610" d="M355,207l1,1-1-1z" fill="#444b19"/>
 <path id="path612" d="M162.33,208.67c-0.05,0.05-0.11,1.11,0.34,0.66,0.05-0.05,0.11-1.11-0.34-0.66z" fill="#989801"/>
 <path id="path614" d="M354,208l1,1-1-1z" fill="#444b19"/>
 <path id="path616" d="M163,210l1,1-1-1m3,4l1,1-1-1m1,1l1,1-1-1m182,0l1,1-1-1m-181,1l1,1-1-1z" fill="#989801"/>
 <path id="path618" d="M169.33,217.67c-0.05,0.05-0.11,1.11,0.34,0.66,0.05-0.05,0.11-1.11-0.34-0.66z" fill="#6c6c02"/>
 <path id="path620" d="M170,219l1,1-1-1m1,1l1,1-1-1m1,1l1,1-1-1m172,0l1,1-1-1z" fill="#989801"/>
 <path id="path622" d="M173,222l1,1-1-1z" fill="#6c6c02"/>
 <path id="path624" d="M343,222l1,1-1-1m-1,1l1,1-1-1z" fill="#989801"/>
 <path id="path626" d="M175,224l1,1-1-1z" fill="#6c6c02"/>
 <path id="path628" d="M341,224l1,1-1-1z" fill="#989801"/>
 <path id="path630" d="M176,225l1,1-1-1z" fill="#6c6c02"/>
 <path id="path632" d="M177,226l1,1-1-1m1,1l1,1-1-1m1,1l1,1-1-1m158,0l1,1-1-1z" fill="#989801"/>
 <path id="path634" d="M180,229l1,1-1-1z" fill="#6c6c02"/>
 <path id="path636" d="M336,229l1,1-1-1z" fill="#989801"/>
 <path id="path638" d="M181,230l1,1-1-1z" fill="#6c6c02"/>
 <path id="path640" d="M334,230l1,1-1-1z" fill="#989801"/>
 <path id="path642" d="M335,230l1,1-1-1z" fill="#444b19"/>
 <path id="path644" d="M182,231l1,1-1-1z" fill="#6c6c02"/>
 <path id="path646" d="M184,232l1,1-1-1m1,1l1,1-1-1m1,1l1,1-1-1m1,1l1,1-1-1m1.67,1.33c-0.45,0.45,0.61,0.39,0.66,0.34,0.45-0.45-0.61-0.39-0.66-0.34m1.33,0.67l1,1-1-1z" fill="#989801"/>
 <path id="path648" d="M326,237l1,1-1-1z" fill="#6c6c02"/>
 <path id="path650" d="M191,238l1,1-1-1z" fill="#444b19"/>
 <path id="path652" d="M192,238l1,1-1-1z" fill="#989801"/>
 <path id="path654" d="M320,241l1,1-1-1m-1,1l1,1-1-1z" fill="#6c6c02"/>
 <path id="path656" d="M340,242c-2.29,1.9-4.2,3.64-6,6,2.56-1.61,5.19-3.03,6-6z" fill="#5a081a"/>
 <path id="path658" d="M237,270c-8.48,15.92-15.41,36.57-20.08,54-1.36,5.06-6.23,11.67-4.89,17,3.2,12.76,17.13,22.54,28.97,25.62,22.34,5.83,48.15,7.53,70-1.07,3.88-1.53,9.74-2.89,11.97-6.74,2.07-3.57,0.82-8.86,1.2-12.81,0.99-10.2,6.53-18.52,16.83-21,0.01-9.11,1.67-18.72,8.46-25.47,3.91-3.89,10.2-6.15,14.14-1.19,9.75,12.3-3.7,27.68,12.4,36.66,13.76-29.42,26.34-75.12-15-88.74-5.23-1.73-11.36-4.63-17-4.08-10.25,1.01-22.68,14.27-32.42,18.73-22.23,10.18-50.54,14.88-74.58,9.09z" fill="#ff013d"/>
 <path id="path660" d="M199,243l1,1-1-1z" fill="#444b19"/>
 <path id="path662" d="M316.67,243.33c-0.45,0.45,0.61,0.39,0.66,0.34,0.45-0.45-0.61-0.39-0.66-0.34z" fill="#989801"/>
 <path id="path664" d="M352,243c1.51,0.68,2.32,0.83,4,1-1.51-0.68-2.32-0.83-4-1z" fill="#5a081a"/>
 <path id="path666" d="M200.67,244.33c-0.45,0.45,0.61,0.39,0.66,0.34,0.45-0.45-0.61-0.39-0.66-0.34m114.33-0.33l1,1-1-1z" fill="#989801"/>
 <path id="path668" d="M356.67,244.33c-0.45,0.45,0.61,0.39,0.66,0.34,0.45-0.45-0.61-0.39-0.66-0.34z" fill="#a30127"/>
 <path id="path670" d="M202,245l1,1-1-1z" fill="#444b19"/>
 <path id="path672" d="M313,245l1,1-1-1z" fill="#989801"/>
 <path id="path674" d="M314,245l1,1-1-1z" fill="#6c6c02"/>
 <path id="path676" d="M358,245c1.25,0.68,1.55,0.75,3,1-1.25-0.68-1.55-0.75-3-1z" fill="#a30127"/>
 <path id="path678" d="M203.67,246.33c-0.45,0.45,0.61,0.39,0.66,0.34,0.45-0.45-0.61-0.39-0.66-0.34z" fill="#444b19"/>
 <path id="path680" d="M311,246l1,1-1-1z" fill="#989801"/>
 <path id="path682" d="M361,246c1.25,0.68,1.55,0.75,3,1-1.25-0.68-1.55-0.75-3-1z" fill="#a30127"/>
 <path id="path684" d="M205,247l1,1-1-1z" fill="#444b19"/>
 <path id="path686" d="M365,247l1,1-1-1z" fill="#5a081a"/>
 <path id="path688" d="M206.33,248.67c-0.05,0.05-0.11,1.11,0.34,0.66,0.05-0.05,0.11-1.11-0.34-0.66z" fill="#6c6c02"/>
 <path id="path690" d="M207,250v4c0.71-1.76,0.71-2.24,0-4m95.67,0.33c-0.45,0.45,0.61,0.39,0.66,0.34,0.45-0.45-0.61-0.39-0.66-0.34z" fill="#989801"/>
 <path id="path692" d="M401,250l1,1-1-1z" fill="#576e57"/>
 <path id="path694" d="M181,251c1.51,0.68,2.32,0.83,4,1-1.51-0.68-2.32-0.83-4-1z" fill="#5a081a"/>
 <path id="path696" d="M300.67,251.33c-0.45,0.45,0.61,0.39,0.66,0.34,0.45-0.45-0.61-0.39-0.66-0.34z" fill="#989801"/>
 <path id="path698" d="M328,251l1,1-1-1z" fill="#5a081a"/>
 <path id="path700" d="M175,253c2.08,0.51,3.84,0.24,6,0-2.24-0.81-3.65-0.53-6,0z" fill="#a30127"/>
 <path id="path702" d="M137,338c3.18-4.17,6.58-7.19,11-10-1.97-3.92-6.68-6.5-7.46-11-1.64-9.41,12.19-20.93,20.46-21.82,4.38-0.48,12.3,5.08,15.49,2.99,2.51-1.64,3.42-6.55,4.51-9.17,3.1-7.51,12.87-25.96,7.97-33.72-5.8-9.2-26.8,3.73-32.97,7.22-13.64,7.73-26.48,17.21-39,26.63-3.86,2.9-12.34,8.01-13.48,13-1.24,5.43,2.89,10.17,6.2,13.83,7.67,8.5,17.17,16.64,27.28,22.04z" fill="#ff013d"/>
 <path id="path704" d="M185.67,252.33c-0.45,0.45,0.61,0.39,0.66,0.34,0.45-0.45-0.61-0.39-0.66-0.34z" fill="#a30127"/>
 <path id="path706" d="M297,252l1,1-1-1z" fill="#989801"/>
 <path id="path708" d="M298.67,252.33c-0.45,0.45,0.61,0.39,0.66,0.34,0.45-0.45-0.61-0.39-0.66-0.34z" fill="#6c6c02"/>
 <path id="path710" d="M295.67,253.33c-0.45,0.45,0.61,0.39,0.66,0.34,0.45-0.45-0.61-0.39-0.66-0.34z" fill="#444b19"/>
 <path id="path712" d="M325.67,253.33c-0.45,0.45,0.61,0.39,0.66,0.34,0.45-0.45-0.61-0.39-0.66-0.34m48,0c-0.45,0.45,0.61,0.39,0.66,0.34,0.45-0.45-0.61-0.39-0.66-0.34z" fill="#a30127"/>
 <path id="path714" d="M206.33,254.67c-0.05,0.05-0.11,1.11,0.34,0.66,0.05-0.05,0.11-1.11-0.34-0.66z" fill="#6c6c02"/>
 <path id="path716" d="M292,254c1.25,0.68,1.55,0.75,3,1-1.25-0.68-1.55-0.75-3-1z" fill="#444b19"/>
 <path id="path718" d="M170,255l1,1-1-1z" fill="#a30127"/>
 <path id="path720" d="M289,255l1,1-1-1z" fill="#989801"/>
 <path id="path722" d="M205.33,256.67c-0.05,0.05-0.11,1.11,0.34,0.66,0.05-0.05,0.11-1.11-0.34-0.66z" fill="#444b19"/>
 <path id="path724" d="M320,256l1,1-1-1z" fill="#a30127"/>
 <path id="path726" d="M230,257l1,1-1-1z" fill="#444b19"/>
 <path id="path728" d="M281,257l1,1-1-1z" fill="#989801"/>
 <path id="path730" d="M318,257l1,1-1-1z" fill="#5a081a"/>
 <path id="path732" d="M379.33,257.67c-0.05,0.05-0.11,1.11,0.34,0.66,0.05-0.05,0.11-1.11-0.34-0.66z" fill="#a30127"/>
 <path id="path734" d="M162.67,258.33c-0.45,0.45,0.61,0.39,0.66,0.34,0.45-0.45-0.61-0.39-0.66-0.34z" fill="#5a081a"/>
 <path id="path736" d="M205,258l1,1-1-1m23,0l1,1-1-1z" fill="#6c6c02"/>
 <path id="path738" d="M240,258c2.33,0.98,4.46,0.98,7,1-2.33-0.98-4.46-0.98-7-1m31,0c2.05,0.87,3.75,0.95,6,1-2.05-0.87-3.75-0.95-6-1z" fill="#989801"/>
 <path id="path740" d="M315.67,258.33c-0.45,0.45,0.61,0.39,0.66,0.34,0.45-0.45-0.61-0.39-0.66-0.34m-154.67,0.67l1,1-1-1z" fill="#5a081a"/>
 <path id="path742" d="M227,259l1,1-1-1z" fill="#6c6c02"/>
 <path id="path744" d="M247,259c6.69,2.81,16.77,1,24,1-6.69-2.81-16.77-1-24-1z" fill="#989801"/>
 <path id="path746" d="M313.67,259.33c-0.45,0.45,0.61,0.39,0.66,0.34,0.45-0.45-0.61-0.39-0.66-0.34z" fill="#5a081a"/>
 <path id="path748" d="M159.67,260.33c-0.45,0.45,0.61,0.39,0.66,0.34,0.45-0.45-0.61-0.39-0.66-0.34z" fill="#a30127"/>
 <path id="path750" d="M226,260l1,1-1-1z" fill="#444b19"/>
 <path id="path752" d="M309,261c1.25,0.68,1.55,0.75,3,1-1.25-0.68-1.55-0.75-3-1m-155,2l1,1-1-1m151,0l1,1-1-1z" fill="#a30127"/>
 <path id="path754" d="M152,264l1,1-1-1m-1.33,1.33c-0.45,0.45,0.61,0.39,0.66,0.34,0.45-0.45-0.61-0.39-0.66-0.34m-2,1c-0.45,0.45,0.61,0.39,0.66,0.34,0.45-0.45-0.61-0.39-0.66-0.34m147,0c-0.45,0.45,0.61,0.39,0.66,0.34,0.45-0.45-0.61-0.39-0.66-0.34z" fill="#5a081a"/>
 <path id="path756" d="M223,267l1,1-1-1z" fill="#989801"/>
 <path id="path758" d="M291,267c1.51,0.68,2.32,0.83,4,1-1.51-0.68-2.32-0.83-4-1z" fill="#a30127"/>
 <path id="path760" d="M386,267l1,1-1-1m-198,1l1,1-1-1z" fill="#5a081a"/>
 <path id="path762" d="M201,268l1,1-1-1z" fill="#989801"/>
 <path id="path764" d="M223.33,268.67c-0.05,0.05-0.11,1.11,0.34,0.66,0.05-0.05,0.11-1.11-0.34-0.66z" fill="#444b19"/>
 <path id="path766" d="M288,268c1.25,0.68,1.55,0.75,3,1-1.25-0.68-1.55-0.75-3-1m98.33,0.67c-0.05,0.05-0.11,1.11,0.34,0.66,0.05-0.05,0.11-1.11-0.34-0.66z" fill="#a30127"/>
 <path id="path768" d="M222,270v3c0.7-1.55,0.7-1.45,0-3z" fill="#6c6c02"/>
 <path id="path770" d="M236,270l1,1-1-1z" fill="#5a081a"/>
 <path id="path772" d="M387.33,270.67c-0.05,0.05-0.11,1.11,0.34,0.66,0.05-0.05,0.11-1.11-0.34-0.66z" fill="#a30127"/>
 <path id="path774" d="M200,271v3c0.7-1.55,0.7-1.45,0-3z" fill="#989801"/>
 <path id="path776" d="M235.33,271.67c-0.05,0.05-0.11,1.11,0.34,0.66,0.05-0.05,0.11-1.11-0.34-0.66m9.67-0.67l1,1-1-1m143.33,1.67c-0.05,0.05-0.11,1.11,0.34,0.66,0.05-0.05,0.11-1.11-0.34-0.66z" fill="#5a081a"/>
 <path id="path778" d="M139,273l1,1-1-1z" fill="#a30127"/>
 <path id="path780" d="M186.33,273.67c-0.05,0.05-0.11,1.11,0.34,0.66,0.05-0.05,0.11-1.11-0.34-0.66z" fill="#5a081a"/>
 <path id="path782" d="M221.33,273.67c-0.05,0.05-0.11,1.11,0.34,0.66,0.05-0.05,0.11-1.11-0.34-0.66z" fill="#989801"/>
 <path id="path784" d="M137,274l1,1-1-1z" fill="#a30127"/>
 <path id="path786" d="M199,274l1,1-1-1z" fill="#6c6c02"/>
 <path id="path788" d="M388,274l1,1-1-1m-252.33,1.33c-0.45,0.45,0.61,0.39,0.66,0.34,0.45-0.45-0.61-0.39-0.66-0.34m49.33-0.33l1,1-1-1z" fill="#a30127"/>
 <path id="path790" d="M198,275v3c0.7-1.55,0.7-1.45,0-3z" fill="#444b19"/>
 <path id="path792" d="M234,275l1,1-1-1z" fill="#a30127"/>
 <path id="path794" d="M389,275v6c0.95-2.28,0.95-3.72,0-6z" fill="#5a081a"/>
 <path id="path796" d="M134,276l1,1-1-1z" fill="#a30127"/>
 <path id="path798" d="M185.33,276.67c-0.05,0.05-0.11,1.11,0.34,0.66,0.05-0.05,0.11-1.11-0.34-0.66z" fill="#5a081a"/>
 <path id="path800" d="M133,277l1,1-1-1z" fill="#a30127"/>
 <path id="path802" d="M131,278l1,1-1-1m53.33,0.67c-0.05,0.05-0.11,1.11,0.34,0.66,0.05-0.05,0.11-1.11-0.34-0.66z" fill="#5a081a"/>
 <path id="path804" d="M197,278v3c0.7-1.55,0.7-1.45,0-3z" fill="#444b19"/>
 <path id="path806" d="M130,279l1,1-1-1z" fill="#5a081a"/>
 <path id="path808" d="M183.33,280.67c-0.05,0.05-0.11,1.11,0.34,0.66,0.05-0.05,0.11-1.11-0.34-0.66z" fill="#a30127"/>
 <path id="path810" d="M127,281l1,1-1-1z" fill="#5a081a"/>
 <path id="path812" d="M125.67,282.33c-0.45,0.45,0.61,0.39,0.66,0.34,0.45-0.45-0.61-0.39-0.66-0.34z" fill="#a30127"/>
 <path id="path814" d="M218,282l1,1-1-1z" fill="#6c6c02"/>
 <path id="path816" d="M231,282l1,1-1-1m-107,1l1,1-1-1z" fill="#5a081a"/>
 <path id="path818" d="M196,283l1,1-1-1z" fill="#989801"/>
 <path id="path820" d="M231.33,283.67c-0.05,0.05-0.11,1.11,0.34,0.66,0.05-0.05,0.11-1.11-0.34-0.66m-1.33,1.33v3c0.7-1.55,0.7-1.45,0-3z" fill="#a30127"/>
 <path id="path822" d="M83,286l1,1-1-1z" fill="#9fc79f"/>
 <path id="path824" d="M216.33,287.67c-0.05,0.05-0.11,1.11,0.34,0.66,0.05-0.05,0.11-1.11-0.34-0.66z" fill="#444b19"/>
 <path id="path826" d="M229.33,288.67c-0.05,0.05-0.11,1.11,0.34,0.66,0.05-0.05,0.11-1.11-0.34-0.66z" fill="#5a081a"/>
 <path id="path828" d="M180,289l1,1-1-1z" fill="#a30127"/>
 <path id="path830" d="M215,289l1,1-1-1z" fill="#989801"/>
 <path id="path832" d="M193,290l1,1-1-1m22.33,0.67c-0.05,0.05-0.11,1.11,0.34,0.66,0.05-0.05,0.11-1.11-0.34-0.66z" fill="#6c6c02"/>
 <path id="path834" d="M228.33,290.67c-0.05,0.05-0.11,1.11,0.34,0.66,0.05-0.05,0.11-1.11-0.34-0.66z" fill="#5a081a"/>
 <path id="path836" d="M193.33,291.67c-0.05,0.05-0.11,1.11,0.34,0.66,0.05-0.05,0.11-1.11-0.34-0.66m20.67,0.33v3c0.7-1.55,0.7-1.45,0-3m-21.67,1.67c-0.05,0.05-0.11,1.11,0.34,0.66,0.05-0.05,0.11-1.11-0.34-0.66z" fill="#989801"/>
 <path id="path838" d="M109,295l1,1-1-1m57,0c1.25,0.68,1.55,0.75,3,1-1.25-0.68-1.55-0.75-3-1z" fill="#a30127"/>
 <path id="path840" d="M178.33,295.67c-0.05,0.05-0.11,1.11,0.34,0.66,0.05-0.05,0.11-1.11-0.34-0.66z" fill="#5a081a"/>
 <path id="path842" d="M191.33,295.67c-0.05,0.05-0.11,1.11,0.34,0.66,0.05-0.05,0.11-1.11-0.34-0.66z" fill="#6c6c02"/>
 <path id="path844" d="M213,295l1,1-1-1z" fill="#989801"/>
 <path id="path846" d="M355,295c2.33,0.98,4.46,0.98,7,1-2.33-0.98-4.46-0.98-7-1z" fill="#a30127"/>
 <path id="path848" d="M389,295v5c0.83-2.03,0.83-2.97,0-5z" fill="#5a081a"/>
 <path id="path850" d="M108,296l1,1-1-1m46.67,0.33c-0.45,0.45,0.61,0.39,0.66,0.34,0.45-0.45-0.61-0.39-0.66-0.34z" fill="#a30127"/>
 <path id="path852" d="M213,296l1,1-1-1z" fill="#6c6c02"/>
 <path id="path854" d="M353.67,296.33c-0.45,0.45,0.61,0.39,0.66,0.34,0.45-0.45-0.61-0.39-0.66-0.34m-246.67,0.67l1,1-1-1z" fill="#a30127"/>
 <path id="path856" d="M153.67,297.33c-0.45,0.45,0.61,0.39,0.66,0.34,0.45-0.45-0.61-0.39-0.66-0.34m17,0c-0.45,0.45,0.61,0.39,0.66,0.34,0.45-0.45-0.61-0.39-0.66-0.34z" fill="#5a081a"/>
 <path id="path858" d="M191,297l1,1-1-1z" fill="#989801"/>
 <path id="path860" d="M226,297l1,1-1-1m125.67,0.33c-0.45,0.45,0.61,0.39,0.66,0.34,0.45-0.45-0.61-0.39-0.66-0.34m11.33-0.33l1,1-1-1m-257.33,1.33c-0.45,0.45,0.61,0.39,0.66,0.34,0.45-0.45-0.61-0.39-0.66-0.34z" fill="#a30127"/>
 <path id="path862" d="M177,298l1,1-1-1z" fill="#5a081a"/>
 <path id="path864" d="M190.33,298.67c-0.05,0.05-0.11,1.11,0.34,0.66,0.05-0.05,0.11-1.11-0.34-0.66z" fill="#444b19"/>
 <path id="path866" d="M173.67,299.33c-0.45,0.45,0.61,0.39,0.66,0.34,0.45-0.45-0.61-0.39-0.66-0.34z" fill="#5a081a"/>
 <path id="path868" d="M176,299l1,1-1-1m172.33,0.67c-0.05,0.05-0.11,1.11,0.34,0.66,0.05-0.05,0.11-1.11-0.34-0.66m15.67-0.67l1,1-1-1m1,1v4c0.71-1.76,0.71-2.24,0-4z" fill="#a30127"/>
 <path id="path870" d="M388,300v5c0.83-2.03,0.83-2.97,0-5z" fill="#5a081a"/>
 <path id="path872" d="M102,302v3c0.7-1.55,0.7-1.45,0-3z" fill="#a30127"/>
 <path id="path874" d="M147,302l1,1-1-1m-0.67,1.67c-0.05,0.05-0.11,1.11,0.34,0.66,0.05-0.05,0.11-1.11-0.34-0.66z" fill="#5a081a"/>
 <path id="path876" d="M188,304l1,1-1-1z" fill="#6c6c02"/>
 <path id="path878" d="M210,304l1,1-1-1z" fill="#989801"/>
 <path id="path880" d="M366,304v8c1.16-2.77,1.16-5.23,0-8m-263,1v3c0.7-1.55,0.7-1.45,0-3m120.33,0.67c-0.05,0.05-0.11,1.11,0.34,0.66,0.05-0.05,0.11-1.11-0.34-0.66m164,0c-0.05,0.05-0.11,1.11,0.34,0.66,0.05-0.05,0.11-1.11-0.34-0.66z" fill="#a30127"/>
 <path id="path882" d="M209,306l1,1-1-1z" fill="#6c6c02"/>
 <path id="path884" d="M344.33,306.67c-0.05,0.05-0.11,1.11,0.34,0.66,0.05-0.05,0.11-1.11-0.34-0.66z" fill="#5a081a"/>
 <path id="path886" d="M222,307v3c0.7-1.55,0.7-1.45,0-3m164,0v4c0.71-1.76,0.71-2.24,0-4z" fill="#a30127"/>
 <path id="path888" d="M343,308v3c0.7-1.55,0.7-1.45,0-3z" fill="#5a081a"/>
 <path id="path890" d="M208,309v3c0.7-1.55,0.7-1.45,0-3z" fill="#444b19"/>
 <path id="path892" d="M221.33,310.67c-0.05,0.05-0.11,1.11,0.34,0.66,0.05-0.05,0.11-1.11-0.34-0.66m120.67,0.33v4c0.71-1.76,0.71-2.24,0-4m-236,1l1,1-1-1z" fill="#a30127"/>
 <path id="path894" d="M185,312l1,1-1-1z" fill="#444b19"/>
 <path id="path896" d="M207.33,312.67c-0.05,0.05-0.11,1.11,0.34,0.66,0.05-0.05,0.11-1.11-0.34-0.66z" fill="#6c6c02"/>
 <path id="path898" d="M107,313l1,1-1-1z" fill="#a30127"/>
 <path id="path900" d="M140,313v6c0.95-2.28,0.95-3.72,0-6z" fill="#5a081a"/>
 <path id="path902" d="M185,313l1,1-1-1z" fill="#989801"/>
 <path id="path904" d="M108,314l1,1-1-1z" fill="#a30127"/>
 <path id="path906" d="M184,314v3c0.7-1.55,0.7-1.45,0-3z" fill="#6c6c02"/>
 <path id="path908" d="M206.33,314.67c-0.05,0.05-0.11,1.11,0.34,0.66,0.05-0.05,0.11-1.11-0.34-0.66z" fill="#989801"/>
 <path id="path910" d="M109,315l1,1-1-1m232,0v9c1.26-2.99,1.26-6.01,0-9m-230.67,1.67c-0.05,0.05-0.11,1.11,0.34,0.66,0.05-0.05,0.11-1.11-0.34-0.66z" fill="#a30127"/>
 <path id="path912" d="M205,316v3c0.7-1.55,0.7-1.45,0-3z" fill="#989801"/>
 <path id="path914" d="M183.33,317.67c-0.05,0.05-0.11,1.11,0.34,0.66,0.05-0.05,0.11-1.11-0.34-0.66z" fill="#444b19"/>
 <path id="path916" d="M111,318l1,1-1-1m1,1l1,1-1-1z" fill="#a30127"/>
 <path id="path918" d="M183,319l1,1-1-1z" fill="#989801"/>
 <path id="path920" d="M218,319l1,1-1-1z" fill="#5a081a"/>
 <path id="path922" d="M113.67,320.33c-0.45,0.45,0.61,0.39,0.66,0.34,0.45-0.45-0.61-0.39-0.66-0.34m268.33-0.33l1,1-1-1m-267,1l1,1-1-1m1,1l1,1-1-1z" fill="#a30127"/>
 <path id="path924" d="M381.33,322.67c-0.05,0.05-0.11,1.11,0.34,0.66,0.05-0.05,0.11-1.11-0.34-0.66z" fill="#5a081a"/>
 <path id="path926" d="M117,323l1,1-1-1m1,1l1,1-1-1m98,0v3c0.7-1.55,0.7-1.45,0-3z" fill="#a30127"/>
 <path id="path928" d="M380.33,324.67c-0.05,0.05-0.11,1.11,0.34,0.66,0.05-0.05,0.11-1.11-0.34-0.66z" fill="#5a081a"/>
 <path id="path930" d="M146,325l1,1-1-1m-25.33,1.33c-0.45,0.45,0.61,0.39,0.66,0.34,0.45-0.45-0.61-0.39-0.66-0.34m27.66,0.34c-0.05,0.05-0.11,1.11,0.34,0.66,0.05-0.05,0.11-1.11-0.34-0.66z" fill="#a30127"/>
 <path id="path932" d="M180,326l1,1-1-1z" fill="#444b19"/>
 <path id="path934" d="M335,326l1,1-1-1m44,0l1,1-1-1m-257,1l1,1-1-1m93.33,0.67c-0.05,0.05-0.11,1.11,0.34,0.66,0.05-0.05,0.11-1.11-0.34-0.66z" fill="#a30127"/>
 <path id="path936" d="M333.67,327.33c-0.45,0.45,0.61,0.39,0.66,0.34,0.45-0.45-0.61-0.39-0.66-0.34z" fill="#5a081a"/>
 <path id="path938" d="M123,328l1,1-1-1z" fill="#a30127"/>
 <path id="path940" d="M147,328l1,1-1-1z" fill="#5a081a"/>
 <path id="path942" d="M201,328l1,1-1-1z" fill="#6c6c02"/>
 <path id="path944" d="M180.67,329.33c-0.45,0.45,0.61,0.39,0.66,0.34,0.45-0.45-0.61-0.39-0.66-0.34m20.66,0.34c-0.05,0.05-0.11,1.11,0.34,0.66,0.05-0.05,0.11-1.11-0.34-0.66z" fill="#444b19"/>
 <path id="path946" d="M214.33,329.67c-0.05,0.05-0.11,1.11,0.34,0.66,0.05-0.05,0.11-1.11-0.34-0.66z" fill="#5a081a"/>
 <path id="path948" d="M184,330l1,1-1-1z" fill="#989801"/>
 <path id="path950" d="M200,331v3c0.7-1.55,0.7-1.45,0-3z" fill="#444b19"/>
 <path id="path952" d="M213,331v3c0.7-1.55,0.7-1.45,0-3m160,2l1,1-1-1z" fill="#5a081a"/>
 <path id="path954" d="M191,334l1,1-1-1z" fill="#444b19"/>
 <path id="path956" d="M192,334l1,1-1-1z" fill="#989801"/>
 <path id="path958" d="M199,334l1,1-1-1z" fill="#6c6c02"/>
 <path id="path960" d="M327,334l1,1-1-1z" fill="#a30127"/>
 <path id="path962" d="M374,334l1,1-1-1z" fill="#5a081a"/>
 <path id="path964" d="M193.67,335.33c-0.45,0.45,0.61,0.39,0.66,0.34,0.45-0.45-0.61-0.39-0.66-0.34z" fill="#6c6c02"/>
 <path id="path966" d="M326.33,335.67c-0.05,0.05-0.11,1.11,0.34,0.66,0.05-0.05,0.11-1.11-0.34-0.66z" fill="#a30127"/>
 <path id="path968" d="M375,335l1,1-1-1m-241.33,1.33c-0.45,0.45,0.61,0.39,0.66,0.34,0.45-0.45-0.61-0.39-0.66-0.34z" fill="#5a081a"/>
 <path id="path970" d="M195,336l1,1-1-1z" fill="#444b19"/>
 <path id="path972" d="M198.33,336.67c-0.05,0.05-0.11,1.11,0.34,0.66,0.05-0.05,0.11-1.11-0.34-0.66z" fill="#989801"/>
 <path id="path974" d="M104,337l1,1-1-1z" fill="#9fc79f"/>
 <path id="path976" d="M197,337l1,1-1-1z" fill="#444b19"/>
 <path id="path978" d="M325,337v3c0.7-1.55,0.7-1.45,0-3z" fill="#a30127"/>
 <path id="path980" d="M343,338l1,1-1-1z" fill="#926a61"/>
 <path id="path982" d="M344.04,338.74c-8.51,3.44-8.51,27.18-1.48,32.23,3.87,2.78,17.29-0.65,21.44-2.32,23.49-9.46-4.63-36.1-19.96-29.91z" fill="#fbb5a7"/>
 <path id="path984" d="M341,339l1,1-1-1m-1,1l1,1-1-1z" fill="#444b19"/>
 <path id="path986" d="M357,340l1,1-1-1z" fill="#926a61"/>
 <path id="path988" d="M211,341l1,1-1-1z" fill="#a30127"/>
 <path id="path990" d="M359.67,341.33c-0.45,0.45,0.61,0.39,0.66,0.34,0.45-0.45-0.61-0.39-0.66-0.34z" fill="#444b19"/>
 <path id="path992" d="M212,342l1,1-1-1z" fill="#a30127"/>
 <path id="path994" d="M339,342l1,1-1-1m22,0l1,1-1-1z" fill="#926a61"/>
 <path id="path996" d="M324,343l1,1-1-1z" fill="#5a081a"/>
 <path id="path998" d="M362.67,343.33c-0.45,0.45,0.61,0.39,0.66,0.34,0.45-0.45-0.61-0.39-0.66-0.34z" fill="#926a61"/>
 <path id="path1000" d="M159,344c2.05,0.87,3.75,0.95,6,1-2.05-0.87-3.75-0.95-6-1z" fill="#b9867c"/>
 <path id="path1002" d="M213,344l1,1-1-1z" fill="#a30127"/>
 <path id="path1004" d="M364,344l1,1-1-1z" fill="#444b19"/>
 <path id="path1006" d="M201,365c-6.76-9.02-21.93-17.44-33-19.53-4.52-0.85-12.18-1.71-14.24,3.59-2.56,6.57,3.94,13.06,9.24,15.61,11.8,5.69,25.9,4.17,38,0.33z" fill="#fbb5a7"/>
 <path id="path1008" d="M168,345l1,1-1-1z" fill="#926a61"/>
 <path id="path1010" d="M214.33,345.67c-0.05,0.05-0.11,1.11,0.34,0.66,0.05-0.05,0.11-1.11-0.34-0.66z" fill="#5a081a"/>
 <path id="path1012" d="M365,345l1,1-1-1z" fill="#444b19"/>
 <path id="path1014" d="M154,346l1,1-1-1m-0.67,1.67c-0.05,0.05-0.11,1.11,0.34,0.66,0.05-0.05,0.11-1.11-0.34-0.66z" fill="#926a61"/>
 <path id="path1016" d="M215,347l1,1-1-1z" fill="#a30127"/>
 <path id="path1018" d="M176,348l1,1-1-1z" fill="#b9867c"/>
 <path id="path1020" d="M152,349v5c0.83-2.03,0.83-2.97,0-5z" fill="#5a081a"/>
 <path id="path1022" d="M178.67,349.33c-0.45,0.45,0.61,0.39,0.66,0.34,0.45-0.45-0.61-0.39-0.66-0.34z" fill="#444b19"/>
 <path id="path1024" d="M216,349l1,1-1-1z" fill="#5a081a"/>
 <path id="path1026" d="M180.67,350.33c-0.45,0.45,0.61,0.39,0.66,0.34,0.45-0.45-0.61-0.39-0.66-0.34z" fill="#926a61"/>
 <path id="path1028" d="M217,350l1,1-1-1z" fill="#5a081a"/>
 <path id="path1030" d="M370,350l1,1-1-1z" fill="#444b19"/>
 <path id="path1032" d="M182,351l1,1-1-1z" fill="#b9867c"/>
 <path id="path1034" d="M183,351l1,1-1-1z" fill="#576e57"/>
 <path id="path1036" d="M218,351l1,1-1-1z" fill="#5a081a"/>
 <path id="path1038" d="M371,351l1,1-1-1z" fill="#576e57"/>
 <path id="path1040" d="M185,352l1,1-1-1z" fill="#444b19"/>
 <path id="path1042" d="M372.33,352.67c-0.05,0.05-0.11,1.11,0.34,0.66,0.05-0.05,0.11-1.11-0.34-0.66z" fill="#926a61"/>
 <path id="path1044" d="M220.33,353.67c-0.05,0.05-0.11,1.11,0.34,0.66,0.05-0.05,0.11-1.11-0.34-0.66z" fill="#5a081a"/>
 <path id="path1046" d="M153,354v3c0.7-1.55,0.7-1.45,0-3z" fill="#444b19"/>
 <path id="path1048" d="M373.33,354.67c-0.05,0.05-0.11,1.11,0.34,0.66,0.05-0.05,0.11-1.11-0.34-0.66z" fill="#926a61"/>
 <path id="path1050" d="M222,356l1,1-1-1m152.33,0.67c-0.05,0.05-0.11,1.11,0.34,0.66,0.05-0.05,0.11-1.11-0.34-0.66z" fill="#5a081a"/>
 <path id="path1052" d="M192,357l1,1-1-1z" fill="#926a61"/>
 <path id="path1054" d="M223,357l1,1-1-1z" fill="#5a081a"/>
 <path id="path1056" d="M155,358l1,1-1-1z" fill="#b9867c"/>
 <path id="path1058" d="M338,358l1,1-1-1z" fill="#444b19"/>
 <path id="path1060" d="M194.67,359.33c-0.45,0.45,0.61,0.39,0.66,0.34,0.45-0.45-0.61-0.39-0.66-0.34z" fill="#b9867c"/>
 <path id="path1062" d="M374,359v3c0.7-1.55,0.7-1.45,0-3z" fill="#444b19"/>
 <path id="path1064" d="M320,361l1,1-1-1z" fill="#5a081a"/>
 <path id="path1066" d="M199,362l1,1-1-1z" fill="#926a61"/>
 <path id="path1068" d="M319,362l1,1-1-1z" fill="#a30127"/>
 <path id="path1070" d="M373.33,362.67c-0.05,0.05-0.11,1.11,0.34,0.66,0.05-0.05,0.11-1.11-0.34-0.66z" fill="#444b19"/>
 <path id="path1072" d="M200,363l1,1-1-1z" fill="#926a61"/>
 <path id="path1074" d="M229,363l1,1-1-1z" fill="#5a081a"/>
 <path id="path1076" d="M230.67,363.33c-0.45,0.45,0.61,0.39,0.66,0.34,0.45-0.45-0.61-0.39-0.66-0.34m85,0c-0.45,0.45,0.61,0.39,0.66,0.34,0.45-0.45-0.61-0.39-0.66-0.34z" fill="#a30127"/>
 <path id="path1078" d="M161,364l1,1-1-1z" fill="#444b19"/>
 <path id="path1080" d="M162,364l1,1-1-1m39,0l-1,2h2c0-1.85,0.3-1.35-1-2z" fill="#926a61"/>
 <path id="path1082" d="M232,364c1.25,0.68,1.55,0.75,3,1-1.25-0.68-1.55-0.75-3-1m81.67,0.33c-0.45,0.45,0.61,0.39,0.66,0.34,0.45-0.45-0.61-0.39-0.66-0.34z" fill="#a30127"/>
 <path id="path1084" d="M372,364l1,1-1-1m-208.33,1.33c-0.45,0.45,0.61,0.39,0.66,0.34,0.45-0.45-0.61-0.39-0.66-0.34z" fill="#444b19"/>
 <path id="path1086" d="M199,365l1,1-1-1z" fill="#b9867c"/>
 <path id="path1088" d="M235.67,365.33c-0.45,0.45,0.61,0.39,0.66,0.34,0.45-0.45-0.61-0.39-0.66-0.34m76,0c-0.45,0.45,0.61,0.39,0.66,0.34,0.45-0.45-0.61-0.39-0.66-0.34z" fill="#5a081a"/>
 <path id="path1090" d="M370.67,365.33c-0.45,0.45,0.61,0.39,0.66,0.34,0.45-0.45-0.61-0.39-0.66-0.34m-205.67,0.67c1.25,0.68,1.55,0.75,3,1-1.25-0.68-1.55-0.75-3-1m31,0c1.25,0.68,1.55,0.75,3,1-1.25-0.68-1.55-0.75-3-1z" fill="#444b19"/>
 <path id="path1092" d="M238,366c1.25,0.68,1.55,0.75,3,1-1.25-0.68-1.55-0.75-3-1m70,0c1.25,0.68,1.55,0.75,3,1-1.25-0.68-1.55-0.75-3-1z" fill="#5a081a"/>
 <path id="path1094" d="M368.67,366.33c-0.45,0.45,0.61,0.39,0.66,0.34,0.45-0.45-0.61-0.39-0.66-0.34z" fill="#444b19"/>
 <path id="path1096" d="M134,367l1,1-1-1z" fill="#576e57"/>
 <path id="path1098" d="M191,367l1,1-1-1z" fill="#b9867c"/>
 <path id="path1100" d="M244,367l1,1-1-1m61,0l1,1-1-1z" fill="#a30127"/>
 <path id="path1102" d="M340,367v4c0.71-1.76,0.71-2.24,0-4z" fill="#5a081a"/>
 <path id="path1104" d="M366,367l1,1-1-1z" fill="#444b19"/>
 <path id="path1106" d="M364,368l1,1-1-1z" fill="#926a61"/>
 <path id="path1108" d="M298,369l1,1-1-1z" fill="#5a081a"/>
 <path id="path1110" d="M357,385c-17.01,3.2-27.07,2.97-31-16-11.91,1.56-23.62,7.8-36,9.57-4.1,0.59-11.08-0.98-14.3,2.03-5.1,4.77-5.44,14.02-5.74,20.4-0.22,4.66-2.39,9.33-1.6,14,1.72,10.26,13.38,21.18,19.74,29,4.59,5.66,10.59,14.3,17.9,16.49,8.24,2.46,16.55-4.65,23-8.83,9.21-5.99,19.98-13.42,24.98-23.66,2.33-4.78,0.91-11.82,1.04-17,0.21-8.7,1.98-17.26,1.98-26z" fill="#95bb95"/>
 <path id="path1112" d="M326,369v3c0.7-1.55,0.7-1.45,0-3m-6,1l1,1-1-1z" fill="#576e57"/>
 <path id="path1114" d="M354,370c1.51,0.68,2.32,0.83,4,1-1.51-0.68-2.32-0.83-4-1z" fill="#b9867c"/>
 <path id="path1116" d="M358,370l1,1-1-1z" fill="#444b19"/>
 <path id="path1118" d="M277,371c1.51,0.68,2.32,0.83,4,1-1.51-0.68-2.32-0.83-4-1z" fill="#a30127"/>
 <path id="path1120" d="M317.67,371.33c-0.45,0.45,0.61,0.39,0.66,0.34,0.45-0.45-0.61-0.39-0.66-0.34z" fill="#576e57"/>
 <path id="path1122" d="M341.33,371.67c-0.05,0.05-0.11,1.11,0.34,0.66,0.05-0.05,0.11-1.11-0.34-0.66z" fill="#5a081a"/>
 <path id="path1124" d="M348,371c2.05,0.87,3.75,0.95,6,1-2.05-0.87-3.75-0.95-6-1z" fill="#b9867c"/>
 <path id="path1126" d="M314,372c1.25,0.68,1.55,0.75,3,1-1.25-0.68-1.55-0.75-3-1z" fill="#444b19"/>
 <path id="path1128" d="M342,372c2.05,0.87,3.75,0.95,6,1-2.05-0.87-3.75-0.95-6-1z" fill="#926a61"/>
 <path id="path1130" d="M312.67,373.33c-0.45,0.45,0.61,0.39,0.66,0.34,0.45-0.45-0.61-0.39-0.66-0.34m14.33-0.33v3c0.7-1.55,0.7-1.45,0-3z" fill="#576e57"/>
 <path id="path1132" d="M309,374c1.25,0.68,1.55,0.75,3,1-1.25-0.68-1.55-0.75-3-1z" fill="#779375"/>
 <path id="path1134" d="M305,375l1,1-1-1z" fill="#576e57"/>
 <path id="path1136" d="M328,376v3c0.7-1.55,0.7-1.45,0-3m-32,1l1,1-1-1z" fill="#444b19"/>
 <path id="path1138" d="M157,384c0,13.94-0.51,25.95,5.22,39,4.77,10.86,10.96,21.1,18.95,30,6.92,7.7,14.83,8.96,24.83,9,17.21,0.08,33.73-6.21,42.48-22,11.07-19.97,3.58-55.02-21.52-61.31-7.81-1.95-23.68,6.35-31.96,8.1-13.65,2.89-24.79-0.54-38-2.79z" fill="#9fc79f"/>
 <path id="path1140" d="M227.67,378.33c-0.45,0.45,0.61,0.39,0.66,0.34,0.45-0.45-0.61-0.39-0.66-0.34m48.33-0.33c4.22,1.77,9.46,1,14,1-4.22-1.77-9.46-1-14-1z" fill="#444b19"/>
 <path id="path1142" d="M290,378l1,1-1-1z" fill="#779375"/>
 <path id="path1144" d="M219.67,379.33c-0.45,0.45,0.61,0.39,0.66,0.34,0.45-0.45-0.61-0.39-0.66-0.34z" fill="#576e57"/>
 <path id="path1146" d="M229,379l1,1-1-1z" fill="#779375"/>
 <path id="path1148" d="M216,380c1.25,0.68,1.55,0.75,3,1-1.25-0.68-1.55-0.75-3-1z" fill="#576e57"/>
 <path id="path1150" d="M274.33,380.67c-0.05,0.05-0.11,1.11,0.34,0.66,0.05-0.05,0.11-1.11-0.34-0.66z" fill="#444b19"/>
 <path id="path1152" d="M214.67,381.33c-0.45,0.45,0.61,0.39,0.66,0.34,0.45-0.45-0.61-0.39-0.66-0.34m17,0c-0.45,0.45,0.61,0.39,0.66,0.34,0.45-0.45-0.61-0.39-0.66-0.34z" fill="#779375"/>
 <path id="path1154" d="M211,382c1.25,0.68,1.55,0.75,3,1-1.25-0.68-1.55-0.75-3-1z" fill="#95bb95"/>
 <path id="path1156" d="M273,382v3c0.7-1.55,0.7-1.45,0-3z" fill="#444b19"/>
 <path id="path1158" d="M208,383l1,1-1-1m27,0l1,1-1-1m1,1l1,1-1-1m-80,1v10c1.35-3.21,1.35-6.79,0-10z" fill="#779375"/>
 <path id="path1160" d="M162,385l1,1-1-1z" fill="#576e57"/>
 <path id="path1162" d="M238,385l1,1-1-1z" fill="#444b19"/>
 <path id="path1164" d="M357,385v10c1.35-3.21,1.35-6.79,0-10z" fill="#576e57"/>
 <path id="path1166" d="M166,386c1.51,0.68,2.32,0.83,4,1-1.51-0.68-2.32-0.83-4-1m26,0c1.77,0.78,3.04,0.91,5,1-1.77-0.78-3.04-0.91-5-1m47,0l1,1-1-1m33,0l1,1-1-1m62,0c4.47,1.88,10.18,1,15,1-4.47-1.88-10.18-1-15-1z" fill="#444b19"/>
 <path id="path1168" d="M137,387l1,1-1-1z" fill="#9fc79f"/>
 <path id="path1170" d="M170,387c5.96,2.5,14.56,1,21,1-5.96-2.5-14.56-1-21-1z" fill="#576e57"/>
 <path id="path1172" d="M191,387l1,1-1-1z" fill="#779375"/>
 <path id="path1174" d="M240,387l1,1-1-1m1,1l1,1-1-1m1,1l1,1-1-1m-106,1l1,1-1-1m107,0l1,1-1-1z" fill="#576e57"/>
 <path id="path1176" d="M136,391l1,1-1-1z" fill="#9fc79f"/>
 <path id="path1178" d="M244,391l1,1-1-1m1.33,1.67c-0.05,0.05-0.11,1.11,0.34,0.66,0.05-0.05,0.11-1.11-0.34-0.66m0.67,1.33l1,1-1-1z" fill="#576e57"/>
 <path id="path1180" d="M155,395l1,1-1-1z" fill="#779375"/>
 <path id="path1182" d="M356,395v10c1.35-3.21,1.35-6.79,0-10z" fill="#576e57"/>
 <path id="path1184" d="M156,396v9c1.26-2.99,1.26-6.01,0-9m91,0l1,1-1-1m22,2v8c1.16-2.77,1.16-5.23,0-8m-18.67,3.67c-0.05,0.05-0.11,1.11,0.34,0.66,0.05-0.05,0.11-1.11-0.34-0.66z" fill="#779375"/>
 <path id="path1186" d="M251,403l1,1-1-1z" fill="#444b19"/>
 <path id="path1188" d="M251.33,404.67c-0.05,0.05-0.11,1.11,0.34,0.66,0.05-0.05,0.11-1.11-0.34-0.66z" fill="#576e57"/>
 <path id="path1190" d="M364,404v6c1.06-1.97,1.53-3.8,2-6h-2z" fill="#444b19"/>
 <path id="path1192" d="M355,405v22c2.22-5.29,2.22-16.71,0-22z" fill="#779375"/>
 <path id="path1194" d="M252,406v3c0.7-1.55,0.7-1.45,0-3z" fill="#444b19"/>
 <path id="path1196" d="M268,406v4c0.71-1.76,0.71-2.24,0-4z" fill="#779375"/>
 <path id="path1198" d="M365,406c-0.86,6.78,1.35,18.22-1.49,24.2-7.25,15.25-24.45,25.44-38.51,33.66-6.58,3.84-13.19,7.73-21,5.03-16.77-5.8-20.94-25.76-35-33.89,0,8.86,0.3,16.69,3.74,25,17.58,42.43,71.5,11.84,89.46-14,7.43-10.69,13.35-29.47,2.8-40m-208,3l1,1-1-1z" fill="#576e57"/>
 <path id="path1200" d="M253,409v4c0.71-1.76,0.71-2.24,0-4z" fill="#444b19"/>
 <path id="path1202" d="M267,410v6c0.95-2.28,0.95-3.72,0-6z" fill="#576e57"/>
 <path id="path1204" d="M268,416l1,1-1-1z" fill="#779375"/>
 <path id="path1206" d="M268,417l1,1-1-1m-107.67,2.67c-0.05,0.05-0.11,1.11,0.34,0.66,0.05-0.05,0.11-1.11-0.34-0.66m1,2c-0.05,0.05-0.11,1.11,0.34,0.66,0.05-0.05,0.11-1.11-0.34-0.66z" fill="#444b19"/>
 <path id="path1208" d="M162.33,423.67c-0.05,0.05-0.11,1.11,0.34,0.66,0.05-0.05,0.11-1.11-0.34-0.66z" fill="#576e57"/>
 <path id="path1210" d="M152,424c0.7,3.33,1.15,6.01,4,8-0.87-3.14-1.82-5.58-4-8m10,1l1,1-1-1z" fill="#444b19"/>
 <path id="path1212" d="M163.33,425.67c-0.05,0.05-0.11,1.11,0.34,0.66,0.05-0.05,0.11-1.11-0.34-0.66m89.67-0.67l1,1-1-1z" fill="#779375"/>
 <path id="path1214" d="M253,426v3c0.7-1.55,0.7-1.45,0-3m21,0l1,1-1-1z" fill="#444b19"/>
 <path id="path1216" d="M275,427l1,1-1-1z" fill="#779375"/>
 <path id="path1218" d="M136.33,429.67c-0.05,0.05-0.11,1.11,0.34,0.66,0.05-0.05,0.11-1.11-0.34-0.66m115.67-0.67v4c0.71-1.76,0.71-2.24,0-4z" fill="#576e57"/>
 <path id="path1220" d="M278,431l1,1-1-1z" fill="#779375"/>
 <path id="path1222" d="M155,432c2.63,10.96,11.11,20.8,17.28,30.04,2.17,3.23,4.52,8.56,8.1,10.4,4.57,2.35,11.58,2.11,16.62,2.72,15.31,1.83,33.26,2.59,48-2.5,5.63-1.95,11.75-4.02,14.68-9.66,2.98-5.74-0.56-14.03-1.68-20-5.56,5.92-9.39,12.43-16,17.54-14.23,10.98-43.14,17.76-59,6.03-12.43-9.19-17.42-24.31-28-34.57m11,0l1,1-1-1m113,0l1,1-1-1z" fill="#576e57"/>
 <path id="path1224" d="M362,432l1,1-1-1z" fill="#444b19"/>
 <path id="path1226" d="M167,433l1,1-1-1z" fill="#576e57"/>
 <path id="path1228" d="M251.33,433.67c-0.05,0.05-0.11,1.11,0.34,0.66,0.05-0.05,0.11-1.11-0.34-0.66z" fill="#779375"/>
 <path id="path1230" d="M268,433v10c1.37-3.23,1.76-6.95,0-10z" fill="#444b19"/>
 <path id="path1232" d="M349,433l1,1-1-1z" fill="#576e57"/>
 <path id="path1234" d="M280,434l1,1-1-1m-111.67,1.67c-0.05,0.05-0.11,1.11,0.34,0.66,0.05-0.05,0.11-1.11-0.34-0.66z" fill="#444b19"/>
 <path id="path1236" d="M250.33,435.67c-0.05,0.05-0.11,1.11,0.34,0.66,0.05-0.05,0.11-1.11-0.34-0.66z" fill="#779375"/>
 <path id="path1238" d="M281,435l1,1-1-1z" fill="#444b19"/>
 <path id="path1240" d="M282,436l1,1-1-1z" fill="#576e57"/>
 <path id="path1242" d="M169,437l1,1-1-1z" fill="#444b19"/>
 <path id="path1244" d="M283.33,437.67c-0.05,0.05-0.11,1.11,0.34,0.66,0.05-0.05,0.11-1.11-0.34-0.66z" fill="#576e57"/>
 <path id="path1246" d="M357,437l1,1-1-1z" fill="#444b19"/>
 <path id="path1248" d="M170,438l1,1-1-1m79,0l1,1-1-1z" fill="#779375"/>
 <path id="path1250" d="M356,438l1,1-1-1m-186,1l1,1-1-1z" fill="#444b19"/>
 <path id="path1252" d="M284,439l1,1-1-1z" fill="#576e57"/>
 <path id="path1254" d="M355,439l1,1-1-1m-197,1l1,1-1-1m13,0l1,1-1-1z" fill="#444b19"/>
 <path id="path1256" d="M248,440l1,1-1-1z" fill="#576e57"/>
 <path id="path1258" d="M285,440l1,1-1-1z" fill="#444b19"/>
 <path id="path1260" d="M343,440l1,1-1-1z" fill="#779375"/>
 <path id="path1262" d="M354,440l1,1-1-1m-182,1l1,1-1-1m75,0l1,1-1-1m11,0v5c0.83-2.03,0.83-2.97,0-5m85,0l1,1-1-1m-180.67,1.67c-0.05,0.05-0.11,1.11,0.34,0.66,0.05-0.05,0.11-1.11-0.34-0.66m83.67,0.33l1,1-1-1m-0.67,1.67c-0.05,0.05-0.11,1.11,0.34,0.66,0.05-0.05,0.11-1.11-0.34-0.66m43.67,0.33l1,1-1-1m-45,1l1,1-1-1m15,0v6c0.95-2.28,0.95-3.72,0-6z" fill="#444b19"/>
 <path id="path1264" d="M290,446l1,1-1-1z" fill="#576e57"/>
 <path id="path1266" d="M243,447l1,1-1-1m47,0l1,1-1-1m-48,1l1,1-1-1m39.33,0.67c-0.05,0.05-0.11,1.11,0.34,0.66,0.05-0.05,0.11-1.11-0.34-0.66m52.34-0.34c-0.45,0.45,0.61,0.39,0.66,0.34,0.45-0.45-0.61-0.39-0.66-0.34m15,0c-0.45,0.45,0.61,0.39,0.66,0.34,0.45-0.45-0.61-0.39-0.66-0.34m-95.67,0.67l1,1-1-1m105,1l1,1-1-1m-1,1l1,1-1-1m-187.67,1.67c-0.05,0.05-0.11,1.11,0.34,0.66,0.05-0.05,0.11-1.11-0.34-0.66m90.67-0.67v3c0.7-1.55,0.7-1.45,0-3m67,0l1,1-1-1m15,0l1,1-1-1m14.33,0.67c-0.05,0.05-0.11,1.11,0.34,0.66,0.05-0.05,0.11-1.11-0.34-0.66z" fill="#444b19"/>
 <path id="path1268" d="M236,453l1,1-1-1m90,0l1,1-1-1z" fill="#576e57"/>
 <path id="path1270" d="M341,453l1,1-1-1z" fill="#444b19"/>
 <path id="path1272" d="M234.67,454.33c-0.45,0.45,0.61,0.39,0.66,0.34,0.45-0.45-0.61-0.39-0.66-0.34z" fill="#576e57"/>
 <path id="path1274" d="M297,454l1,1-1-1z" fill="#444b19"/>
 <path id="path1276" d="M324,454l1,1-1-1z" fill="#576e57"/>
 <path id="path1278" d="M355,454l1,1-1-1z" fill="#444b19"/>
 <path id="path1280" d="M233,455l1,1-1-1z" fill="#576e57"/>
 <path id="path1282" d="M248,455l1,1-1-1m38,0l1,1-1-1m12,0l1,1-1-1z" fill="#444b19"/>
 <path id="path1284" d="M322.67,455.33c-0.45,0.45,0.61,0.39,0.66,0.34,0.45-0.45-0.61-0.39-0.66-0.34z" fill="#576e57"/>
 <path id="path1286" d="M337.67,455.33c-0.45,0.45,0.61,0.39,0.66,0.34,0.45-0.45-0.61-0.39-0.66-0.34m16.33-0.33l1,1-1-1m-122.33,1.33c-0.45,0.45,0.61,0.39,0.66,0.34,0.45-0.45-0.61-0.39-0.66-0.34m55.33-0.33l1,1-1-1z" fill="#444b19"/>
 <path id="path1288" d="M320,456l1,1-1-1z" fill="#576e57"/>
 <path id="path1290" d="M321,456l1,1-1-1z" fill="#444b19"/>
 <path id="path1292" d="M229,457l1,1-1-1z" fill="#779375"/>
 <path id="path1294" d="M288,457l1,1-1-1z" fill="#444b19"/>
 <path id="path1296" d="M319,457l1,1-1-1z" fill="#779375"/>
 <path id="path1298" d="M170.33,458.67c-0.05,0.05-0.11,1.11,0.34,0.66,0.05-0.05,0.11-1.11-0.34-0.66m118.67-0.67l1,1-1-1z" fill="#444b19"/>
 <path id="path1300" d="M375,459l1,1-1-1z" fill="#9fc79f"/>
 <path id="path1302" d="M304,460l1,1-1-1m45,0l1,1-1-1z" fill="#444b19"/>
 <path id="path1304" d="M195,461c1.51,0.68,2.32,0.83,4,1-1.51-0.68-2.32-0.83-4-1m20,0c1.51,0.68,2.32,0.83,4,1-1.51-0.68-2.32-0.83-4-1m92,0c1.51,0.68,2.32,0.83,4,1-1.51-0.68-2.32-0.83-4-1z" fill="#779375"/>
 <path id="path1306" d="M311,461l1,1-1-1m36.67,0.33c-0.45,0.45,0.61,0.39,0.66,0.34,0.45-0.45-0.61-0.39-0.66-0.34m-175.67,0.67l1,1-1-1m27,0l1,1-1-1z" fill="#444b19"/>
 <path id="path1308" d="M200,462c4.22,1.77,9.46,1,14,1-4.22-1.77-9.46-1-14-1z" fill="#576e57"/>
 <path id="path1310" d="M214,462l1,1-1-1m-41,1l1,1-1-1m64.67,0.33c-0.45,0.45,0.61,0.39,0.66,0.34,0.45-0.45-0.61-0.39-0.66-0.34m21.33-0.33l1,1-1-1m15.33,0.67c-0.05,0.05-0.11,1.11,0.34,0.66,0.05-0.05,0.11-1.11-0.34-0.66m19.67-0.67l1,1-1-1m51,0l1,1-1-1m-1,1l1,1-1-1m-68.67,1.67c-0.05,0.05-0.11,1.11,0.34,0.66,0.05-0.05,0.11-1.11-0.34-0.66m67.67-0.67l1,1-1-1m-114,2l1,1-1-1m107.67,2.33c-0.45,0.45,0.61,0.39,0.66,0.34,0.45-0.45-0.61-0.39-0.66-0.34m-143.67,0.67c1.77,0.78,3.04,0.91,5,1-1.77-0.78-3.04-0.91-5-1m23,0c1.77,0.78,3.04,0.91,5,1-1.77-0.78-3.04-0.91-5-1m62,0l1,1-1-1m-80,1c5.22,2.19,12.37,1,18,1-5.22-2.19-12.37-1-18-1m84,3l1,1-1-1m41.67,2.33c-0.45,0.45,0.61,0.39,0.66,0.34,0.45-0.45-0.61-0.39-0.66-0.34m-37,1c-0.45,0.45,0.61,0.39,0.66,0.34,0.45-0.45-0.61-0.39-0.66-0.34m33.33-0.33c1.25,0.68,1.55,0.75,3,1-1.25-0.68-1.55-0.75-3-1m-31.33,1.33c-0.45,0.45,0.61,0.39,0.66,0.34,0.45-0.45-0.61-0.39-0.66-0.34m30,0c-0.45,0.45,0.61,0.39,0.66,0.34,0.45-0.45-0.61-0.39-0.66-0.34z" fill="#444b19"/>
 <path id="path1312" d="M381,500l1,1-1-1m-7,3c1.25,0.68,1.55,0.75,3,1-1.25-0.68-1.55-0.75-3-1z" fill="#576e57"/>
</svg>
