<?xml version="1.0" encoding="UTF-8" standalone="no"?>
<!-- Created with Inkscape (http://www.inkscape.org/) -->

<svg
   xmlns:dc="http://purl.org/dc/elements/1.1/"
   xmlns:cc="http://creativecommons.org/ns#"
   xmlns:rdf="http://www.w3.org/1999/02/22-rdf-syntax-ns#"
   xmlns:svg="http://www.w3.org/2000/svg"
   xmlns="http://www.w3.org/2000/svg"
   xmlns:sodipodi="http://sodipodi.sourceforge.net/DTD/sodipodi-0.dtd"
   xmlns:inkscape="http://www.inkscape.org/namespaces/inkscape"
   width="262"
   height="262"
   viewBox="0 0 69.320835 69.320834"
   version="1.1"
   id="svg4773"
   inkscape:version="0.48.5 r10040"
   sodipodi:docname="vertical_white_shadow.svg"
   inkscape:export-xdpi="96.059998"
   inkscape:export-ydpi="96.059998">
  <defs
     id="defs4767" />
  <sodipodi:namedview
     id="base"
     pagecolor="#ffffff"
     bordercolor="#666666"
     borderopacity="1.0"
     inkscape:pageopacity="0.0"
     inkscape:pageshadow="2"
     inkscape:zoom="2"
     inkscape:cx="143.27082"
     inkscape:cy="145.26889"
     inkscape:document-units="mm"
     inkscape:current-layer="layer4"
     showgrid="false"
     fit-margin-top="0"
     fit-margin-left="0"
     fit-margin-right="0"
     fit-margin-bottom="0"
     inkscape:window-width="1920"
     inkscape:window-height="1027"
     inkscape:window-x="0"
     inkscape:window-y="53"
     inkscape:window-maximized="0"
     units="px"
     showguides="false" />
  <metadata
     id="metadata4770">
    <rdf:RDF>
      <cc:Work
         rdf:about="">
        <dc:format>image/svg+xml</dc:format>
        <dc:type
           rdf:resource="http://purl.org/dc/dcmitype/StillImage" />
        <dc:title></dc:title>
      </cc:Work>
    </rdf:RDF>
  </metadata>
  <g
     style="display:none"
     inkscape:label="Shadow copy#1"
     id="g4059"
     inkscape:groupmode="layer"
     sodipodi:insensitive="true">
    <path
       sodipodi:nodetypes="cccccccccccccccccccccccccccccccccccccccccc"
       inkscape:connector-curvature="0"
       id="path4061"
       d="m 19.103466,69.188609 50.141955,0 -0.05681,-49.272563 0.155024,-0.510764 L 68.633283,18.694929 67.212578,17.274225 64.37117,14.432815 61.529759,11.591406 58.68835,8.7499962 44.705541,9.4054581 43.022537,14.989031 35.848857,7.8153503 24.661385,9.5084437 22.616449,12.950877 22.168094,12.502522 21.271384,11.605812 19.477964,9.8123915 15.891123,6.225551 14.885614,6.8771381 10.759323,32.823145 l -0.469446,0.608764 1.188305,1.188305 1.188306,1.188306 1.188305,1.188305 1.188306,1.188305 1.188305,1.188306 1.188306,1.188305 1.188305,1.188306 -0.506245,0.494363 -4.709524,4.468516 -2.198492,2.33616 4.753223,4.753221 -0.45488,0.448485 -4.122656,7.14729 -0.181063,0.832803 2.376611,2.376612 2.376612,2.376609 1.188306,1.188306 0.594152,0.594153 0.297077,0.297076 0.148538,0.148539 z"
       style="fill:none;stroke:#000000;stroke-width:0.26445186px;stroke-linecap:butt;stroke-linejoin:miter;stroke-opacity:1" />
  </g>
  <g
     style="display:none"
     inkscape:label="Shadow copy"
     id="g3954"
     inkscape:groupmode="layer"
     sodipodi:insensitive="true">
    <path
       inkscape:connector-curvature="0"
       id="path3956"
       d="M 10.289877,33.431909 48.315651,71.457681"
       style="fill:none;stroke:#000000;stroke-width:0.26458335px;stroke-linecap:butt;stroke-linejoin:miter;stroke-opacity:1" />
    <path
       sodipodi:nodetypes="ccc"
       inkscape:connector-curvature="0"
       id="path3958"
       d="M 15.891123,6.2255511 44.585848,34.920276 73.280572,63.615001"
       style="fill:none;stroke:#000000;stroke-width:0.26458335px;stroke-linecap:butt;stroke-linejoin:miter;stroke-opacity:1" />
    <path
       inkscape:connector-curvature="0"
       id="path3960"
       d="M 58.688349,8.7499957 81.419622,31.481272"
       style="fill:none;stroke:#000000;stroke-width:0.26458335px;stroke-linecap:butt;stroke-linejoin:miter;stroke-opacity:1" />
    <path
       inkscape:connector-curvature="0"
       id="path3962"
       d="M 35.848856,7.8153503 93.238305,65.204798"
       style="fill:none;stroke:#000000;stroke-width:0.26458335px;stroke-linecap:butt;stroke-linejoin:miter;stroke-opacity:1" />
    <path
       inkscape:connector-curvature="0"
       id="path3964"
       d="M 11.193754,49.049085 49.219537,87.074857"
       style="fill:none;stroke:#000000;stroke-width:0.26458335px;stroke-linecap:butt;stroke-linejoin:miter;stroke-opacity:1" />
    <path
       inkscape:connector-curvature="0"
       id="path3966"
       d="M 11.188378,62.230884 49.21416,100.25666"
       style="fill:none;stroke:#000000;stroke-width:0.26458335px;stroke-linecap:butt;stroke-linejoin:miter;stroke-opacity:1" />
    <path
       transform="matrix(0.26458334,0,0,0.26458334,0,-5e-7)"
       inkscape:connector-curvature="0"
       id="path3968"
       d="m 168.96582,67.783322 0,-32.235133 53.99385,-1.074505"
       style="fill:none;stroke:#000000;stroke-width:1px;stroke-linecap:butt;stroke-linejoin:miter;stroke-opacity:1" />
    <path
       transform="matrix(0.26458334,0,0,0.26458334,0,-5e-7)"
       inkscape:connector-curvature="0"
       id="path3970"
       d="M 39.488038,126.88107 59.634997,24.265892"
       style="fill:none;stroke:#000000;stroke-width:1px;stroke-linecap:butt;stroke-linejoin:miter;stroke-opacity:1" />
    <path
       transform="matrix(0.26458334,0,0,0.26458334,0,-5e-7)"
       inkscape:connector-curvature="0"
       id="path3972"
       d="m 74.409433,150.25154 -32.50376,34.38414"
       style="fill:none;stroke:#000000;stroke-width:1px;stroke-linecap:butt;stroke-linejoin:miter;stroke-opacity:1" />
    <path
       transform="matrix(0.26458334,0,0,0.26458334,0,-5e-7)"
       inkscape:connector-curvature="0"
       id="path3974"
       d="M 62.321258,196.45523 41.637047,234.33151"
       style="fill:none;stroke:#000000;stroke-width:1px;stroke-linecap:butt;stroke-linejoin:miter;stroke-opacity:1" />
    <path
       inkscape:connector-curvature="0"
       id="path3976"
       d="m 16.007226,69.188609 53.181383,0 0,-50.746963"
       style="fill:none;stroke:#000000;stroke-width:0.26445186px;stroke-linecap:butt;stroke-linejoin:miter;stroke-opacity:1" />
    <path
       transform="matrix(0.26458334,0,0,0.26458334,0,-5e-7)"
       inkscape:connector-curvature="0"
       id="path3978"
       d="M 85.265643,48.632231 93.208383,35.937426 136.8595,31.049587"
       style="fill:none;stroke:#000000;stroke-width:1px;stroke-linecap:butt;stroke-linejoin:miter;stroke-opacity:1" />
  </g>
  <g
     inkscape:groupmode="layer"
     id="layer3"
     inkscape:label="Bg"
     sodipodi:insensitive="true">
    <rect
       style="fill:#4661a9;fill-opacity:1"
       id="rect3008"
       width="69.320831"
       height="69.320831"
       x="0"
       y="1.1352538e-07" />
  </g>
  <g
     inkscape:groupmode="layer"
     id="layer4"
     inkscape:label="Shadow"
     style="display:inline">
    <path
       style="fill:#324c96;fill-opacity:1;stroke:none"
       d="m 69.320835,69.320835 0,-50.120287 L 58.830666,8.7103555 44.705541,9.4054581 43.180795,14.962717 36.007232,7.7889544 24.661385,9.5084437 22.709063,12.847708 15.984375,6.122083 l -5.809111,27.402256 8.318799,8.321182 -7.399617,7.312804 4.753302,4.753176 -4.759462,8.410829 6.998902,6.998505 z"
       id="path4057"
       inkscape:connector-curvature="0"
       sodipodi:nodetypes="cccccccccccccccc" />
  </g>
  <g
     inkscape:label="Layer 1"
     inkscape:groupmode="layer"
     id="layer1"
     transform="translate(-139.18261,-126.26301)"
     sodipodi:insensitive="true"
     style="display:inline">
    <g
       id="g5527"
       transform="translate(9.4324342,-5.403313)">
      <path
         inkscape:connector-curvature="0"
         id="path4566"
         style="fill:#ffffff;fill-opacity:1;fill-rule:nonzero;stroke:none"
         d="m 139.92451,137.78573 h 5.81132 v 27.40764 h -5.81132 z" />
      <path
         inkscape:connector-curvature="0"
         id="path4570"
         style="fill:#ffffff;fill-opacity:1;fill-rule:nonzero;stroke:none"
         d="M 168.64209,165.1938 H 149.2606 v -4.07739 l 6.95976,-7.03559 c 2.06078,-2.11117 3.40694,-3.57491 4.03947,-4.39029 0.63206,-0.81586 1.08702,-1.57077 1.36537,-2.26618 0.27787,-0.6954 0.41705,-1.41575 0.41705,-2.16203 0,-1.11245 -0.30618,-1.94078 -0.91952,-2.48453 -0.61333,-0.54328 -1.4316,-0.81538 -2.45575,-0.81538 -1.07501,0 -2.11788,0.24668 -3.12906,0.73955 -1.01215,0.49336 -2.06749,1.195 -3.16745,2.10491 l -3.1857,-3.77359 c 1.36536,-1.16332 2.49653,-1.98494 3.39446,-2.46534 0.89744,-0.4804 1.87743,-0.85041 2.9395,-1.10957 1.06206,-0.25915 2.25032,-0.38873 3.56531,-0.38873 1.73202,0 3.262,0.31627 4.58945,0.94832 1.32745,0.63253 2.35784,1.51702 3.09115,2.65491 0.73284,1.13788 1.09998,2.44038 1.09998,3.90653 0,1.27754 -0.2246,2.47493 -0.67333,3.59411 -0.44873,1.11868 -1.14412,2.26617 -2.0862,3.44197 -0.94159,1.1758 -2.60116,2.85118 -4.97819,5.02522 l -3.56531,3.35703 v 0.26539 h 12.0805 z" />
      <path
         inkscape:connector-curvature="0"
         id="path4574"
         style="fill:#ffffff;fill-opacity:1;fill-rule:nonzero;stroke:none"
         d="m 177.57404,150.68377 h 1.91198 c 1.78722,0 3.12428,-0.35274 4.01213,-1.05918 0.88688,-0.70597 1.33081,-1.73395 1.33081,-3.08396 0,-1.362 -0.37194,-2.36792 -1.11534,-3.0182 -0.74386,-0.64933 -1.90959,-0.97471 -3.49619,-0.97471 h -2.64339 z m 13.12287,-4.34951 c 0,2.95006 -0.92191,5.20567 -2.76528,6.76782 -1.84386,1.5626 -4.46517,2.34343 -7.86442,2.34343 h -2.49317 v 9.74809 h -5.81134 v -27.40763 h 8.75467 c 3.32439,0 5.85164,0.71556 7.58318,2.14667 1.73059,1.43111 2.59636,3.56482 2.59636,6.40162" />
      <path
         inkscape:connector-curvature="0"
         id="path4578"
         style="fill:#ffc434;fill-opacity:1;fill-rule:nonzero;stroke:none"
         d="m 150.26631,190.04175 c 0,-3.06091 -2.48117,-5.54209 -5.5421,-5.54209 -3.06043,0 -5.5416,2.48118 -5.5416,5.54209 0,3.06092 2.48117,5.54209 5.5416,5.54209 3.06093,0 5.5421,-2.48117 5.5421,-5.54209" />
      <path
         inkscape:connector-curvature="0"
         id="path4582"
         style="fill:#60ab60;fill-opacity:1;fill-rule:nonzero;stroke:none"
         d="m 150.26631,176.86733 c 0,-3.06092 -2.48117,-5.5421 -5.5421,-5.5421 -3.06043,0 -5.5416,2.48118 -5.5416,5.5421 0,3.06092 2.48117,5.54209 5.5416,5.54209 3.06093,0 5.5421,-2.48117 5.5421,-5.54209" />
      <path
         inkscape:connector-curvature="0"
         id="path4586"
         style="fill:#e15647;fill-opacity:1;fill-rule:nonzero;stroke:none"
         d="m 163.44073,190.04175 c 0,-3.06091 -2.48118,-5.54209 -5.54208,-5.54209 -3.06045,0 -5.54163,2.48118 -5.54163,5.54209 0,3.06092 2.48118,5.54209 5.54163,5.54209 3.0609,0 5.54208,-2.48117 5.54208,-5.54209" />
      <path
         inkscape:connector-curvature="0"
         id="path4590"
         style="fill:#ffc434;fill-opacity:1;fill-rule:nonzero;stroke:none"
         d="m 163.44073,176.86733 c 0,-3.06092 -2.48118,-5.5421 -5.54208,-5.5421 -3.06045,0 -5.54163,2.48118 -5.54163,5.5421 0,3.06092 2.48118,5.54209 5.54163,5.54209 3.0609,0 5.54208,-2.48117 5.54208,-5.54209" />
      <path
         inkscape:connector-curvature="0"
         id="path4594"
         style="fill:#ffc434;fill-opacity:1;fill-rule:nonzero;stroke:none"
         d="m 176.61516,190.04175 c 0,-3.06091 -2.48119,-5.54209 -5.5421,-5.54209 -3.06044,0 -5.54162,2.48118 -5.54162,5.54209 0,3.06092 2.48118,5.54209 5.54162,5.54209 3.06091,0 5.5421,-2.48117 5.5421,-5.54209" />
      <path
         inkscape:connector-curvature="0"
         id="path4598"
         style="fill:#60ab60;fill-opacity:1;fill-rule:nonzero;stroke:none"
         d="m 176.61516,176.86733 c 0,-3.06092 -2.48119,-5.5421 -5.5421,-5.5421 -3.06044,0 -5.54162,2.48118 -5.54162,5.5421 0,3.06092 2.48118,5.54209 5.54162,5.54209 3.06091,0 5.5421,-2.48117 5.5421,-5.54209" />
      <path
         inkscape:connector-curvature="0"
         id="path4602"
         style="fill:#60ab60;fill-opacity:1;fill-rule:nonzero;stroke:none"
         d="m 189.78952,190.04175 c 0,-3.06091 -2.48117,-5.54209 -5.54208,-5.54209 -3.06044,0 -5.54162,2.48118 -5.54162,5.54209 0,3.06092 2.48118,5.54209 5.54162,5.54209 3.06091,0 5.54208,-2.48117 5.54208,-5.54209" />
      <path
         inkscape:connector-curvature="0"
         id="path4606"
         style="fill:#e15647;fill-opacity:1;fill-rule:nonzero;stroke:none"
         d="m 189.78952,176.86733 c 0,-3.06092 -2.48117,-5.5421 -5.54208,-5.5421 -3.06044,0 -5.54162,2.48118 -5.54162,5.5421 0,3.06092 2.48118,5.54209 5.54162,5.54209 3.06091,0 5.54208,-2.48117 5.54208,-5.54209" />
    </g>
  </g>
</svg>
